<?xml version="1.0" encoding="UTF-8" standalone="no"?>
<!-- Generator: Adobe Illustrator 27.4.0, SVG Export Plug-In . SVG Version: 6.00 Build 0)  -->

<svg
   version="1.1"
   id="图层_1"
   x="0px"
   y="0px"
   viewBox="0 0 158 83"
   xml:space="preserve"
   sodipodi:docname="niho_logo_634.svg"
   width="158"
   height="83"
   inkscape:version="1.2.2 (732a01da63, 2022-12-09)"
   xmlns:inkscape="http://www.inkscape.org/namespaces/inkscape"
   xmlns:sodipodi="http://sodipodi.sourceforge.net/DTD/sodipodi-0.dtd"
   xmlns="http://www.w3.org/2000/svg"
   xmlns:svg="http://www.w3.org/2000/svg"><defs
   id="defs89"><rect
   x="-523"
   y="-143"
   width="962"
   height="121"
   id="rect371" /><rect
   x="-494"
   y="66"
   width="482"
   height="140"
   id="rect266" />
	
	
	
	
	
	
</defs><sodipodi:namedview
   id="namedview87"
   pagecolor="#ffffff"
   bordercolor="#000000"
   borderopacity="0.25"
   inkscape:showpageshadow="2"
   inkscape:pageopacity="0.0"
   inkscape:pagecheckerboard="0"
   inkscape:deskcolor="#d1d1d1"
   showgrid="false"
   inkscape:zoom="1.41"
   inkscape:cx="-168"
   inkscape:cy="61"
   inkscape:window-width="1920"
   inkscape:window-height="1017"
   inkscape:window-x="-8"
   inkscape:window-y="-8"
   inkscape:window-maximized="1"
   inkscape:current-layer="图层_1" />
<style
   type="text/css"
   id="style2">
	.st0{fill:#FFFFFF;}
	.st1{fill:#C5A66F;}
	.st2{fill:#2EA7E0;}
	.st3{fill:none;}
</style>


<g
   id="g263"><path
     class="st3"
     d="m 133,74 c 8,0 15,-7 15,-15 0,-8 -7,-15 -15,-15 -8,0 -15,7 -15,15 0,8 7,15 15,15 z"
     id="path4" /><path
     d="m 133,83 c 7,0 13,-3 18,-7 4,-5 7,-11 7,-17 0,-6 -2,-12 -7,-17 -5,-5 -11,-7 -17,-7 -15,0 -26,10 -26,24 0,13 12,24 25,24 z m 0,-39 c 8,0 15,7 15,15 0,8 -7,15 -15,15 -8,0 -15,-7 -15,-15 0,-8 7,-15 15,-15 z"
     id="path6"
     style="fill:#ffffff" /><path
     d="m 21,44 c 7,0 11,4 11,13 v 26 h 10 v -28 c 0,-12 -8,-20 -20,-20 -8,0 -12,4 -12,4 l -10,5 v 39 h 10 v -26 c 0,-8 4,-13 11,-13 z"
     id="path8"
     style="fill:#ffffff" /><polygon
     points="389,321 399,321 399,268 389,273 "
     id="polygon10"
     transform="translate(-342,-238)"
     style="fill:#ffffff" /><path
     d="m 72,39 v -11 -5 l -10,5 v 4 17 34 h 10 v -26 c 0,-8 4,-13 11,-13 5,0 11,1 11,13 v 26 h 10 v -28 c 0,-12 -8,-20 -20,-20 -5,0 -9,1 -12,4 z"
     id="path12"
     style="fill:#ffffff" /><g
     id="g18"
     transform="translate(-342,-238)">
		<path
   class="st1"
   d="m 389,253 c 0,-8 -7,-15 -15,-15 l 15,26 z"
   id="path14" />
		<path
   class="st2"
   d="m 401,252 c -7,0 -12,5 -12,12 l 26,-12 z"
   id="path16" />
	</g></g></svg>
