<?xml version="1.0" encoding="UTF-8" standalone="no"?>
<!-- Created with Inkscape (http://www.inkscape.org/) -->

<svg
   version="1.1"
   id="svg2"
   width="224"
   height="107"
   viewBox="0 0 224 107"
   sodipodi:docname="niho_logo_newBlack.svg"
   inkscape:version="1.3 (0e150ed6c4, 2023-07-21)"
   xmlns:inkscape="http://www.inkscape.org/namespaces/inkscape"
   xmlns:sodipodi="http://sodipodi.sourceforge.net/DTD/sodipodi-0.dtd"
   xmlns="http://www.w3.org/2000/svg"
   xmlns:svg="http://www.w3.org/2000/svg">
  <defs
     id="defs6">
    <clipPath
       clipPathUnits="userSpaceOnUse"
       id="clipPath18">
      <path
         d="m 0,595 h 842 v -595 h -842 z"
         id="path16" />
    </clipPath>
    <clipPath
       clipPathUnits="userSpaceOnUse"
       id="clipPath56">
      <path
         d="m 0,595 h 842 v -595 h -842 z"
         id="path54" />
    </clipPath>
  </defs>
  <sodipodi:namedview
     id="namedview4"
     pagecolor="#ffffff"
     bordercolor="#000000"
     borderopacity="0.25"
     inkscape:showpageshadow="2"
     inkscape:pageopacity="0.0"
     inkscape:pagecheckerboard="0"
     inkscape:deskcolor="#d1d1d1"
     showgrid="false"
     inkscape:zoom="1.05"
     inkscape:cx="-35.7"
     inkscape:cy="66.2"
     inkscape:window-width="1920"
     inkscape:window-height="1017"
     inkscape:window-x="-8"
     inkscape:window-y="-8"
     inkscape:window-maximized="1"
     inkscape:current-layer="g10">
    <inkscape:page
       x="0"
       y="0"
       id="page8"
       width="224"
       height="107"
       margin="0"
       bleed="0" />
    <inkscape:page
       x="699"
       y="-330"
       id="page44"
       width="1120"
       height="794"
       margin="0"
       bleed="0" />
  </sodipodi:namedview>
  <g
     id="g10"
     inkscape:groupmode="layer"
     inkscape:label="Page 1"
     transform="matrix(1.33,0,0,-1.33,-441,464)">
    <g
       id="g12">
      <g
         id="g14"
         clip-path="url(#clipPath18)">
        <g
           id="g20"
           transform="translate(475,278)">
          <path
             d="m 0,0 c -7.87,0 -14.5,6.83 -14.5,14.9 0,8.1 6.7,14.9 14.66,14.9 8.18,0 14.84,-6.7 14.84,-14.8 0,-8.41 -6.59,-15 -15,-15 m 18.1,31.7 c -4.6,4.7 -10.98,7.3 -17.54,7.3 -14.26,0 -25.06,-10.4 -25.06,-24.3 0,-12.78 11.4,-23.97 24.5,-23.97 6.79,0 13.2,2.59 17.9,7.29 4.4,4.42 7,10.44 7.1,16.48 0.1,6.5 -2.4,12.6 -6.9,17.2"
             style="fill:#231916;fill-opacity:1;fill-rule:nonzero;stroke:none"
             id="path22" />
        </g>
        <g
           id="g24"
           transform="translate(354,317)">
          <path
             d="m 0,0 c -8.3,0 -12,-4.66 -12,-4.66 l -10.2,-4.85 v -38.79 h 10.2 v 25.7 c 0,8.1 4.23,13.15 11.099,13.15 7.151,0 10.471,-4.25 10.471,-13.25 v -25.6 h 10.23 v 28 c 0,12.35 -7.8,20.3 -19.8,20.3"
             style="fill:#231916;fill-opacity:1;fill-rule:nonzero;stroke:none"
             id="path26" />
        </g>
        <g
           id="g28"
           transform="translate(426,317)">
          <path
             d="m 0,0 c -5,0 -9.07,-1.58 -11.9,-4.59 v 11.18 5.21 l -10.3,-4.8 v -4.74 -16.46 -34.1 h 10.2 v 25.4 c 0,8.4 4.13,13.45 11.098,13.45 4.492,0 10.472,-1.35 10.472,-13.35 v -25.5 h 10.23 v 28.1 c 0,12.28 -7.8,20.2 -19.8,20.2"
             style="fill:#231916;fill-opacity:1;fill-rule:nonzero;stroke:none"
             id="path30" />
        </g>
        <g
           id="g32"
           transform="translate(384,268)">
          <path
             d="m 0,0 h 10.3 v 48.3 l -10.3,-4.9 z"
             style="fill:#231916;fill-opacity:1;fill-rule:nonzero;stroke:none"
             id="path34" />
        </g>
        <g
           id="g36"
           transform="translate(384,334)">
          <path
             d="m 0,0 c 0,8.16 -6.62,14.8 -14.8,14.8 l 14.8,-26 z"
             style="fill:#c5a670;fill-opacity:1;fill-rule:nonzero;stroke:none"
             id="path38" />
        </g>
        <g
           id="g40"
           transform="translate(396,335)">
          <path
             d="m 0,0 c -6.76,0 -12.2,-5.48 -12.2,-12.2 l 26,12.2 z"
             style="fill:#30a8e1;fill-opacity:1;fill-rule:nonzero;stroke:none"
             id="path42" />
        </g>
      </g>
    </g>
  </g>
  <g
     id="g46"
     inkscape:groupmode="layer"
     inkscape:label="Page 2"
     transform="matrix(1.33,0,0,-1.33,699,464)">
    <path
       d="m 0,0 h 842 v 595 h -842 z"
       style="fill:#231916;fill-opacity:1;fill-rule:nonzero;stroke:none"
       id="path48" />
    <g
       id="g50">
      <g
         id="g52"
         clip-path="url(#clipPath56)">
        <g
           id="g58"
           transform="translate(475,278)">
          <path
             d="m 0,0 c -7.87,0 -14.5,6.83 -14.5,14.9 0,8.1 6.7,14.9 14.66,14.9 8.18,0 14.84,-6.7 14.84,-14.8 0,-8.41 -6.59,-15 -15,-15 m 18.1,31.7 c -4.6,4.7 -10.98,7.3 -17.54,7.3 -14.26,0 -25.06,-10.4 -25.06,-24.3 0,-12.78 11.4,-23.97 24.5,-23.97 6.79,0 13.2,2.59 17.9,7.29 4.4,4.42 7,10.44 7.1,16.48 0.1,6.5 -2.4,12.6 -6.9,17.2"
             style="fill:#ffffff;fill-opacity:1;fill-rule:nonzero;stroke:none"
             id="path60" />
        </g>
        <g
           id="g62"
           transform="translate(354,317)">
          <path
             d="m 0,0 c -8.3,0 -12,-4.66 -12,-4.66 l -10.2,-4.85 v -38.79 h 10.2 v 25.7 c 0,8.1 4.23,13.15 11.099,13.15 7.151,0 10.471,-4.25 10.471,-13.25 v -25.6 h 10.23 v 28 c 0,12.35 -7.8,20.3 -19.8,20.3"
             style="fill:#ffffff;fill-opacity:1;fill-rule:nonzero;stroke:none"
             id="path64" />
        </g>
        <g
           id="g66"
           transform="translate(426,317)">
          <path
             d="m 0,0 c -5,0 -9.07,-1.58 -11.9,-4.59 v 11.18 5.21 l -10.3,-4.8 v -4.74 -16.46 -34.1 h 10.2 v 25.4 c 0,8.4 4.13,13.45 11.098,13.45 4.492,0 10.472,-1.35 10.472,-13.35 v -25.5 h 10.23 v 28.1 c 0,12.28 -7.8,20.2 -19.8,20.2"
             style="fill:#ffffff;fill-opacity:1;fill-rule:nonzero;stroke:none"
             id="path68" />
        </g>
        <g
           id="g70"
           transform="translate(384,268)">
          <path
             d="m 0,0 h 10.3 v 48.3 l -10.3,-4.9 z"
             style="fill:#ffffff;fill-opacity:1;fill-rule:nonzero;stroke:none"
             id="path72" />
        </g>
        <g
           id="g74"
           transform="translate(384,334)">
          <path
             d="m 0,0 c 0,8.16 -6.62,14.8 -14.8,14.8 l 14.8,-26 z"
             style="fill:#c5a670;fill-opacity:1;fill-rule:nonzero;stroke:none"
             id="path76" />
        </g>
        <g
           id="g78"
           transform="translate(396,335)">
          <path
             d="m 0,0 c -6.76,0 -12.2,-5.48 -12.2,-12.2 l 26,12.2 z"
             style="fill:#30a8e1;fill-opacity:1;fill-rule:nonzero;stroke:none"
             id="path80" />
        </g>
      </g>
    </g>
  </g>
</svg>
