<?xml version="1.0" encoding="UTF-8" standalone="no"?>
<!-- Generator: Adobe Illustrator 27.4.0, SVG Export Plug-In . SVG Version: 6.00 Build 0)  -->

<svg
   version="1.1"
   id="图层_1"
   x="0px"
   y="0px"
   viewBox="0 0 158 108"
   xml:space="preserve"
   sodipodi:docname="niho_logo_632.svg"
   width="158"
   height="108"
   inkscape:version="1.2.2 (732a01da63, 2022-12-09)"
   xmlns:inkscape="http://www.inkscape.org/namespaces/inkscape"
   xmlns:sodipodi="http://sodipodi.sourceforge.net/DTD/sodipodi-0.dtd"
   xmlns="http://www.w3.org/2000/svg"
   xmlns:svg="http://www.w3.org/2000/svg"><defs
   id="defs89"><rect
     x="-523"
     y="-143"
     width="962"
     height="121"
     id="rect371" /><rect
     x="-494"
     y="66"
     width="482"
     height="140"
     id="rect266" /></defs><sodipodi:namedview
   id="namedview87"
   pagecolor="#ffffff"
   bordercolor="#000000"
   borderopacity="0.25"
   inkscape:showpageshadow="2"
   inkscape:pageopacity="0.0"
   inkscape:pagecheckerboard="0"
   inkscape:deskcolor="#d1d1d1"
   showgrid="false"
   inkscape:zoom="1.41"
   inkscape:cx="-115"
   inkscape:cy="60.3"
   inkscape:window-width="1920"
   inkscape:window-height="1017"
   inkscape:window-x="-8"
   inkscape:window-y="-8"
   inkscape:window-maximized="1"
   inkscape:current-layer="图层_1" />
<style
   type="text/css"
   id="style2">
	.st0{fill:#FFFFFF;}
	.st1{fill:#C5A66F;}
	.st2{fill:#2EA7E0;}
	.st3{fill:none;}
</style>


<g
   id="g20"
   transform="translate(-342,-238)">
	<path
   class="st3"
   d="m 475,312 c 8,0 15,-7 15,-15 0,-8 -7,-15 -15,-15 -8,0 -15,7 -15,15 0,8 7,15 15,15 z"
   id="path4" />
	<path
   d="m 475,321 c 7,0 13,-3 18,-7 4,-5 7,-11 7,-17 0,-6 -2,-12 -7,-17 -5,-5 -11,-7 -17,-7 -15,0 -26,10 -26,24 0,13 12,24 25,24 z m 0,-39 c 8,0 15,7 15,15 0,8 -7,15 -15,15 -8,0 -15,-7 -15,-15 0,-8 7,-15 15,-15 z"
   id="path6" />
	<path
   d="m 363,282 c 7,0 11,4 11,13 v 26 h 10 v -28 c 0,-12 -8,-20 -20,-20 -8,0 -12,4 -12,4 l -10,5 v 39 h 10 v -26 c 0,-8 4,-13 11,-13 z"
   id="path8" />
	<polygon
   points="399,268 389,273 389,321 399,321 "
   id="polygon10" />
	<path
   d="m 414,277 v -11 -5 l -10,5 v 4 17 34 h 10 v -26 c 0,-8 4,-13 11,-13 5,0 11,1 11,13 v 26 h 10 v -28 c 0,-12 -8,-20 -20,-20 -5,0 -9,1 -12,4 z"
   id="path12" />
	<g
   id="g18">
		<path
   class="st1"
   d="m 389,253 c 0,-8 -7,-15 -15,-15 l 15,26 z"
   id="path14" />
		<path
   class="st2"
   d="m 401,252 c -7,0 -12,5 -12,12 l 26,-12 z"
   id="path16" />
	</g>
</g><g
   aria-label="One effort, twice the effect
"
   id="text369"
   style="font-weight:bold;font-size:53.333px;-inkscape-font-specification:'sans-serif, Bold';white-space:pre;shape-inside:url(#rect371)"
   transform="matrix(0.216,0,0,0.312,114,134)"><path
     d="m -484,-114 q 0,6 -2,11 -2,4.2 -6,6.6 -4,2.5 -10,2.5 -6,0 -10,-2.5 -4,-2.4 -6,-6.6 -2,-5 -2,-11 0,-6 2,-10 2,-4 6,-7 4,-2 10,-2 6,0 10,2 4,3 6,7 2,5 2,10 z m -27,0 q 0,6 2,10 2,3 7,3 5,0 8,-3 2,-4 2,-10 0,-6 -2,-9 -3,-3 -8,-3 -5,0 -7,3 -2,3 -2,9 z"
     id="path375" /><path
     d="m -460,-124 q 5,0 8,2 2,3 2,9 v 18.5 h -7 v -16.5 q 0,-4 -2,-5 -1,-2 -3,-2 -4,0 -5,3 -1,2 -1,7 v 13.5 h -8 v -29.5 h 6 l 1,4 v 0 q 2,-2 4,-3 2,-1 5,-1 z"
     id="path377" /><path
     d="m -429,-124 q 6,0 9,3 4,4 4,10 v 4 h -19 q 0,3 2,5 2,2.1 5,2.1 3,0 5,-0.1 3,-1 5,-2 v 6 q -2,1 -4,1.5 -3,0.6 -6,0.6 -5,0 -8,-1.6 -3,-1.7 -5,-4.5 -2,-4 -2,-9 0,-5 2,-8 1,-4 4,-5 4,-2 8,-2 z m 0,6 q -3,0 -4,1 -2,2 -2,5 h 11 q 0,-3 -1,-5 -2,-1 -4,-1 z"
     id="path379" /><path
     d="m -384,-124 q 6,0 10,3 3,4 3,10 v 4 h -19 q 0,3 2,5 2,2.1 6,2.1 2,0 5,-0.1 2,-1 4,-2 v 6 q -2,1 -4,1.5 -2,0.6 -6,0.6 -4,0 -8,-1.6 -3,-1.7 -5,-4.5 -2,-4 -2,-9 0,-5 2,-8 2,-4 5,-5 3,-2 7,-2 z m 0,6 q -2,0 -4,1 -1,2 -2,5 h 12 q 0,-3 -2,-5 -1,-1 -4,-1 z"
     id="path381" /><path
     d="m -348,-118 h -7 v 23.5 h -8 v -23.5 h -5 v -3 l 5,-3 v -2 q 0,-3 1,-5 1,-3 4,-3 2,-1 5,-1 2,0 4,0 2,0 3,1 l -2,6 q 0,-1 -2,-1 -1,0 -2,0 -2,0 -2,1 -1,1 -1,3 v 1 h 7 z"
     id="path383" /><path
     d="m -328,-118 h -7 v 23.5 h -8 v -23.5 h -4 v -3 l 4,-3 v -2 q 0,-3 2,-5 1,-3 3,-3 3,-1 6,-1 2,0 4,0 2,0 3,1 l -2,6 q -1,-1 -2,-1 -1,0 -2,0 -2,0 -3,1 -1,1 -1,3 v 1 h 7 z"
     id="path385" /><path
     d="m -297,-109 q 0,7 -4,11.1 -3,4 -10,4 -4,0 -7,-1.8 -3,-1.8 -5,-5.3 -2,-3 -2,-8 0,-7 4,-11 4,-4 10,-4 4,0 8,2 3,1 4,5 2,3 2,8 z m -20,0 q 0,4 2,6 1,3 4,3 3,0 5,-3 1,-2 1,-6 0,-4 -1,-7 -2,-2 -5,-2 -3,0 -4,2 -2,3 -2,7 z"
     id="path387" /><path
     d="m -274,-124 q 1,0 2,0 0,0 1,0 l -1,8 q 0,-1 -1,-1 -1,0 -1,0 -2,0 -4,1 -2,1 -3,2 -1,2 -1,5 v 14.5 h -8 v -29.5 h 6 l 1,5 v 0 q 2,-2 4,-4 2,-1 5,-1 z"
     id="path389" /><path
     d="m -254,-100 q 2,0 3,-1 1,0 2,0 v 5.7 q -1,0.6 -3,1 -2,0.4 -4,0.4 -3,0 -5,-0.9 -2,-0.8 -3,-2.9 -1,-2.1 -1,-6.3 v -14 h -4 v -3 l 5,-3 2,-6 h 5 v 6 h 8 v 6 h -8 v 14 q 0,2 1,3 1,1 2,1 z"
     id="path391" /><path
     d="m -235,-101 v 1 q -1,2.8 -2,6.1 -1,3.4 -3,6.3 h -5 q 0,-3.1 1,-6.7 1,-3.6 1,-6.7 z"
     id="path393" /><path
     d="m -201,-100 q 1,0 2,-1 1,0 3,0 v 5.7 q -2,0.6 -4,1 -2,0.4 -4,0.4 -2,0 -4,-0.9 -2,-0.8 -4,-2.9 -1,-2.1 -1,-6.3 v -14 h -4 v -3 l 5,-3 2,-6 h 5 v 6 h 8 v 6 h -8 v 14 q 0,2 1,3 1,1 3,1 z"
     id="path395" /><path
     d="m -167,-94.5 -2,-10.5 q 0,-1 -1,-2 0,-2 0,-4 -1,-2 -1,-4 -1,-2 -1,-3 v 0 q 0,1 -1,3 0,2 -1,4 0,2 0,4 -1,1 -1,2 l -2,10.5 h -9 l -8,-29.5 h 8 l 3,13 q 0,2 1,4 0,1 0,3 0,2 1,3 v 0 q 0,-1 0,-2 0,-1 0,-3 1,-1 1,-2 0,-1 0,-2 l 4,-14 h 9 l 3,14 q 0,1 0,3 1,1 1,3 0,2 0,3 v 0 q 1,-1 1,-3 0,-2 0,-3 1,-2 1,-4 l 4,-13 h 7 l -8,29.5 z"
     id="path397" /><path
     d="m -141,-135 q 2,0 3,1 1,1 1,3 0,2 -1,3 -1,1 -3,1 -2,0 -3,-1 -1,-1 -1,-3 0,-2 1,-3 1,-1 3,-1 z m 4,11 v 29.5 h -8 v -29.5 z"
     id="path399" /><path
     d="m -117,-93.9 q -6,0 -10,-3.6 -3,-3.5 -3,-11.5 0,-5 1,-9 2,-3 5,-5 4,-1 8,-1 3,0 5,0 2,1 4,2 l -2,6 q -2,-1 -4,-1 -2,-1 -3,-1 -6,0 -6,9 0,4 1,7 2,2 5,2 2,0 4,-1 2,-1 4,-2 v 6.9 q -2,1.1 -4,1.6 -2,0.6 -5,0.6 z"
     id="path401" /><path
     d="m -89.2,-124 q 6,0 9.5,3 3.5,4 3.5,10 v 4 h -18.7 q 0.1,3 1.9,5 1.9,2.1 5.3,2.1 2.8,0 5.1,-0.1 2.3,-1 4.8,-2 v 6 q -2.2,1 -4.6,1.5 -2.3,0.6 -5.7,0.6 -4.3,0 -7.7,-1.6 -3.4,-1.7 -5.2,-4.5 -2,-4 -2,-9 0,-5 2,-8 1.5,-4 4.6,-5 3.1,-2 7.2,-2 z m 0,6 q -2.3,0 -3.8,1 -1.5,2 -1.8,5 h 11.2 q -0.1,-3 -1.5,-5 -1.3,-1 -4.1,-1 z"
     id="path403" /><path
     d="m -43.6,-100 q 1.3,0 2.6,-1 1.2,0 2.4,0 v 5.7 q -1.3,0.6 -3.2,1 -1.8,0.4 -4.1,0.4 -2.6,0 -4.7,-0.9 -2,-0.8 -3.2,-2.9 -1.2,-2.1 -1.2,-6.3 v -14 h -3.8 v -3 l 4.4,-3 2.3,-6 h 5 v 6 h 8.2 v 6 h -8.2 v 14 q 0,2 1,3 1,1 2.5,1 z"
     id="path405" /><path
     d="m -24.8,-135 v 8 q 0,2 -0.1,4 -0.1,2 -0.2,3 h 0.4 q 1.4,-2 3.6,-3 2.2,-1 4.8,-1 4.7,0 7.59,2 2.88,3 2.88,9 v 18.5 h -7.97 v -16.5 q 0,-7 -4.7,-7 -3.5,0 -4.9,3 -1.4,2 -1.4,7 v 13.5 h -7.9 v -40.5 z"
     id="path407" /><path
     d="m 14.3,-124 q 6.1,0 9.6,3 3.5,4 3.5,10 v 4 h -18.78 q 0.11,3 1.98,5 1.9,2.1 5.3,2.1 2.7,0 5,-0.1 2.4,-1 4.8,-2 v 6 q -2.1,1 -4.5,1.5 -2.3,0.6 -5.7,0.6 -4.4,0 -7.73,-1.6 -3.36,-1.7 -5.28,-4.5 -1.92,-4 -1.92,-9 0,-5 1.71,-8 1.76,-4 4.85,-5 3.07,-2 7.17,-2 z m 0.1,6 q -2.4,0 -3.9,1 -1.45,2 -1.72,5 h 11.12 q 0,-3 -1.4,-5 -1.3,-1 -4.1,-1 z"
     id="path409" /><path
     d="m 59.7,-124 q 6,0 9.6,3 3.5,4 3.5,10 v 4 h -18.8 q 0.1,3 2,5 1.9,2.1 5.3,2.1 2.7,0 5,-0.1 2.4,-1 4.8,-2 v 6 q -2.2,1 -4.5,1.5 -2.4,0.6 -5.7,0.6 -4.4,0 -7.7,-1.6 -3.4,-1.7 -5.3,-4.5 -1.9,-4 -1.9,-9 0,-5 1.7,-8 1.7,-4 4.8,-5 3.1,-2 7.2,-2 z m 0.1,6 q -2.4,0 -3.9,1 -1.5,2 -1.7,5 h 11.1 q 0,-3 -1.4,-5 -1.4,-1 -4.1,-1 z"
     id="path411" /><path
     d="m 95.3,-118 h -6.8 v 23.5 h -8 v -23.5 h -4.4 v -3 l 4.4,-3 v -2 q 0,-3 1.2,-5 1.3,-3 3.6,-3 2.4,-1 5.5,-1 2.3,0 4.2,0 1.9,0 3.1,1 l -2,6 q -0.9,-1 -2,-1 -1.1,0 -2.4,0 -1.7,0 -2.5,1 -0.7,1 -0.7,3 v 1 h 6.8 z"
     id="path413" /><path
     d="m 116,-118 h -7 v 23.5 h -8 v -23.5 h -4.2 v -3 l 4.2,-3 v -2 q 0,-3 1,-5 2,-3 4,-3 2,-1 5,-1 3,0 5,0 2,0 3,1 l -2,6 q -1,-1 -2,-1 -1,0 -3,0 -1,0 -2,1 -1,1 -1,3 v 1 h 7 z"
     id="path415" /><path
     d="m 133,-124 q 6,0 9,3 4,4 4,10 v 4 h -19 q 0,3 2,5 2,2.1 5,2.1 3,0 5,-0.1 2,-1 5,-2 v 6 q -2,1 -5,1.5 -2,0.6 -5,0.6 -5,0 -8,-1.6 -3,-1.7 -5,-4.5 -2,-4 -2,-9 0,-5 1,-8 2,-4 5,-5 3,-2 8,-2 z m 0,6 q -3,0 -4,1 -2,2 -2,5 h 11 q 0,-3 -1,-5 -2,-1 -4,-1 z"
     id="path417" /><path
     d="m 164,-93.9 q -7,0 -10,-3.6 -4,-3.5 -4,-11.5 0,-5 2,-9 2,-3 5,-5 3,-1 8,-1 3,0 5,0 2,1 4,2 l -3,6 q -2,-1 -3,-1 -2,-1 -3,-1 -7,0 -7,9 0,4 2,7 2,2 5,2 2,0 4,-1 2,-1 4,-2 v 6.9 q -2,1.1 -4,1.6 -2,0.6 -5,0.6 z"
     id="path419" /><path
     d="m 192,-100 q 1,0 2,-1 2,0 3,0 v 5.7 q -2,0.6 -3,1 -2,0.4 -5,0.4 -2,0 -4,-0.9 -2,-0.8 -4,-2.9 -1,-2.1 -1,-6.3 v -14 h -3 v -3 l 4,-3 2,-6 h 5 v 6 h 8 v 6 h -8 v 14 q 0,2 1,3 1,1 3,1 z"
     id="path421" /></g></svg>
