<?xml version="1.0" encoding="UTF-8" standalone="no"?>
<!-- Generator: Adobe Illustrator 27.4.0, SVG Export Plug-In . SVG Version: 6.00 Build 0)  -->

<svg
   version="1.1"
   id="图层_1"
   x="0px"
   y="0px"
   viewBox="0 0 168 81"
   xml:space="preserve"
   sodipodi:docname="niho_logo_White.svg"
   width="168"
   height="81"
   inkscape:version="1.2.2 (732a01da63, 2022-12-09)"
   xmlns:inkscape="http://www.inkscape.org/namespaces/inkscape"
   xmlns:sodipodi="http://sodipodi.sourceforge.net/DTD/sodipodi-0.dtd"
   xmlns="http://www.w3.org/2000/svg"
   xmlns:svg="http://www.w3.org/2000/svg"><defs
   id="defs37" /><sodipodi:namedview
   id="namedview35"
   pagecolor="#ffffff"
   bordercolor="#000000"
   borderopacity="0.25"
   inkscape:showpageshadow="2"
   inkscape:pageopacity="0.0"
   inkscape:pagecheckerboard="0"
   inkscape:deskcolor="#d1d1d1"
   showgrid="false"
   inkscape:zoom="1.41"
   inkscape:cx="-27.4"
   inkscape:cy="2.13"
   inkscape:window-width="1920"
   inkscape:window-height="1017"
   inkscape:window-x="-8"
   inkscape:window-y="-8"
   inkscape:window-maximized="1"
   inkscape:current-layer="图层_1" />
<style
   type="text/css"
   id="style2">
	.st0{fill:#C5A66F;}
	.st1{fill:#2EA7E0;}
	.st2{fill:#FFFFFF;}
</style>

<g
   id="g18"
   transform="translate(-332,-246)">
	<path
   d="m -369,286 c -4,-5 -11,-7 -17,-7 -15,0 -25,10 -25,24 0,13 11,24 24,24 7,0 13,-3 18,-7 4,-5 7,-11 7,-17 0,-6 -2,-13 -7,-17 z m -18,32 c -8,0 -14,-7 -14,-15 0,-8 6,-15 14,-15 8,0 15,7 15,15 0,8 -7,15 -15,15 z"
   id="path6" />
	<path
   d="m -508,279 c -8,0 -12,4 -12,4 l -10,5 v 39 h 10 v -26 c 0,-8 4,-13 11,-13 7,0 11,4 11,13 v 26 h 10 v -28 c 0,-12 -8,-20 -20,-20 z"
   id="path8" />
	<path
   d="m -436,279 c -5,0 -9,1 -12,4 v -11 -5 l -10,5 v 4 17 34 h 10 v -26 c 0,-8 4,-13 11,-13 5,0 11,1 11,13 v 26 h 10 v -28 c 0,-13 -8,-20 -20,-20 z"
   id="path10" />
	<polygon
   points="-478,327 -468,327 -468,279 -478,283 "
   id="polygon12" />
	<path
   class="st0"
   d="m -478,261 c 0,-8 -7,-15 -15,-15 l 15,26 z"
   id="path14" />
	<path
   class="st1"
   d="m -466,260 c -7,0 -12,5 -12,12 l 26,-12 z"
   id="path16" />
</g>
<g
   id="g32"
   transform="translate(-332,-246)">
	<path
   class="st2"
   d="m 493,286 c -5,-5 -11,-7 -17,-7 -15,0 -26,10 -26,24 0,13 12,24 25,24 7,0 13,-3 18,-7 4,-5 7,-11 7,-17 0,-6 -2,-13 -7,-17 z m -18,32 c -8,0 -15,-7 -15,-15 0,-8 7,-15 15,-15 8,0 15,7 15,15 0,8 -7,15 -15,15 z"
   id="path20" />
	<path
   class="st2"
   d="m 354,279 c -8,0 -12,4 -12,4 l -10,5 v 39 h 10 v -26 c 0,-8 4,-13 11,-13 7,0 11,4 11,13 v 26 h 10 v -28 c 0,-12 -8,-20 -20,-20 z"
   id="path22" />
	<path
   class="st2"
   d="m 426,279 c -5,0 -9,1 -12,4 v -11 -5 l -10,5 v 4 17 34 h 10 v -26 c 0,-8 4,-13 11,-13 5,0 11,1 11,13 v 26 h 10 v -28 c 0,-13 -8,-20 -20,-20 z"
   id="path24" />
	<polygon
   class="st2"
   points="384,327 394,327 394,279 384,283 "
   id="polygon26" />
	<path
   class="st0"
   d="m 384,261 c 0,-8 -7,-15 -15,-15 l 15,26 z"
   id="path28" />
	<path
   class="st1"
   d="m 396,260 c -7,0 -12,5 -12,12 l 26,-12 z"
   id="path30" />
</g>
</svg>
