<?xml version="1.0" encoding="UTF-8" standalone="no"?>
<!-- Generator: Adobe Illustrator 27.4.0, SVG Export Plug-In . SVG Version: 6.00 Build 0)  -->

<svg
   version="1.1"
   id="图层_1"
   x="0px"
   y="0px"
   viewBox="0 0 162.5196 128.51991"
   xml:space="preserve"
   sodipodi:docname="niho_logo-40.svg"
   inkscape:version="1.2.2 (732a01da63, 2022-12-09)"
   width="162.51968"
   height="128.52"
   xmlns:inkscape="http://www.inkscape.org/namespaces/inkscape"
   xmlns:sodipodi="http://sodipodi.sourceforge.net/DTD/sodipodi-0.dtd"
   xmlns="http://www.w3.org/2000/svg"
   xmlns:svg="http://www.w3.org/2000/svg"><defs
   id="defs1340" /><sodipodi:namedview
   id="namedview1338"
   pagecolor="#ffffff"
   bordercolor="#000000"
   borderopacity="0.25"
   inkscape:showpageshadow="2"
   inkscape:pageopacity="0.0"
   inkscape:pagecheckerboard="0"
   inkscape:deskcolor="#d1d1d1"
   showgrid="false"
   inkscape:zoom="1.37"
   inkscape:cx="-34"
   inkscape:cy="181"
   inkscape:window-width="1920"
   inkscape:window-height="1017"
   inkscape:window-x="-8"
   inkscape:window-y="-8"
   inkscape:window-maximized="1"
   inkscape:current-layer="g1229" />
<style
   type="text/css"
   id="style1093">
	.st0{fill:none;}
	.st1{fill:#C5A66F;}
	.st2{fill:#2EA7E0;}
	.st3{fill:#FFFFFF;}
</style>
<g
   id="g1229"
   transform="translate(-339.7561,-232.55411)">
	<path
   class="st0"
   d="m 391.62,339.81 c -0.15,-0.16 -0.33,-0.29 -0.55,-0.39 -0.21,-0.1 -0.45,-0.15 -0.73,-0.15 -0.27,0 -0.51,0.05 -0.72,0.15 -0.21,0.1 -0.4,0.23 -0.55,0.39 -0.15,0.16 -0.27,0.35 -0.34,0.57 -0.08,0.21 -0.12,0.43 -0.12,0.66 0,0.23 0.04,0.45 0.12,0.66 0.08,0.21 0.19,0.4 0.34,0.57 0.15,0.16 0.33,0.29 0.55,0.39 0.21,0.1 0.45,0.15 0.72,0.15 0.27,0 0.51,-0.05 0.73,-0.15 0.21,-0.1 0.4,-0.23 0.55,-0.39 0.15,-0.16 0.27,-0.35 0.34,-0.57 0.08,-0.21 0.12,-0.43 0.12,-0.66 0,-0.23 -0.04,-0.45 -0.12,-0.66 -0.07,-0.22 -0.19,-0.41 -0.34,-0.57 z"
   id="path1095" />
	<path
   class="st0"
   d="m 387.83,353.09 c -0.44,0 -0.79,0.13 -1.05,0.38 -0.26,0.25 -0.42,0.59 -0.47,1.02 h 3.02 c -0.01,-0.43 -0.14,-0.78 -0.41,-1.03 -0.25,-0.24 -0.62,-0.37 -1.09,-0.37 z"
   id="path1097" />
	<path
   class="st0"
   d="m 372.72,353.09 c -0.44,0 -0.79,0.13 -1.05,0.38 -0.26,0.25 -0.42,0.59 -0.47,1.02 h 3.02 c -0.01,-0.43 -0.14,-0.78 -0.41,-1.03 -0.26,-0.24 -0.62,-0.37 -1.09,-0.37 z"
   id="path1099" />
	<path
   class="st0"
   d="m 425.97,339.42 c -0.26,-0.25 -0.63,-0.37 -1.09,-0.37 -0.44,0 -0.79,0.13 -1.05,0.38 -0.26,0.25 -0.42,0.59 -0.47,1.02 h 3.02 c -0.01,-0.44 -0.15,-0.78 -0.41,-1.03 z"
   id="path1101" />
	<path
   class="st0"
   d="m 435.44,353.09 c -0.44,0 -0.79,0.13 -1.05,0.38 -0.26,0.25 -0.42,0.59 -0.47,1.02 h 3.02 c -0.01,-0.43 -0.14,-0.78 -0.41,-1.03 -0.26,-0.24 -0.62,-0.37 -1.09,-0.37 z"
   id="path1103" />
	<path
   class="st0"
   d="m 404.44,339.05 c -0.44,0 -0.79,0.13 -1.05,0.38 -0.26,0.25 -0.42,0.59 -0.47,1.02 h 3.02 c -0.01,-0.43 -0.14,-0.78 -0.41,-1.03 -0.26,-0.25 -0.62,-0.37 -1.09,-0.37 z"
   id="path1105" />
	<path
   class="st0"
   d="m 379.69,339.05 c -0.44,0 -0.79,0.13 -1.05,0.38 -0.26,0.25 -0.42,0.59 -0.47,1.02 h 3.02 c -0.01,-0.43 -0.14,-0.78 -0.41,-1.03 -0.25,-0.25 -0.62,-0.37 -1.09,-0.37 z"
   id="path1107" />
	<path
   class="st0"
   d="m 362.28,353.09 c -0.44,0 -0.79,0.13 -1.05,0.38 -0.26,0.25 -0.42,0.59 -0.47,1.02 h 3.02 c -0.01,-0.43 -0.14,-0.78 -0.41,-1.03 -0.26,-0.24 -0.63,-0.37 -1.09,-0.37 z"
   id="path1109" />
	<path
   class="st0"
   d="m 474.95,311.71 c 8.41,0 15,-6.59 15,-15 0,-8.14 -6.66,-14.76 -14.84,-14.76 -7.96,0 -14.68,6.8 -14.68,14.84 0,8.09 6.65,14.92 14.52,14.92 z"
   id="path1111" />
	<path
   class="st0"
   d="m 430.99,342.27 c 0.15,0.16 0.33,0.29 0.55,0.39 0.21,0.1 0.45,0.15 0.73,0.15 0.27,0 0.51,-0.05 0.73,-0.15 0.21,-0.1 0.39,-0.23 0.55,-0.39 0.15,-0.16 0.27,-0.35 0.34,-0.57 0.08,-0.21 0.12,-0.43 0.12,-0.66 0,-0.23 -0.04,-0.45 -0.12,-0.66 -0.08,-0.21 -0.19,-0.4 -0.34,-0.57 -0.15,-0.16 -0.33,-0.29 -0.55,-0.39 -0.21,-0.1 -0.45,-0.15 -0.73,-0.15 -0.27,0 -0.51,0.05 -0.73,0.15 -0.21,0.1 -0.4,0.23 -0.55,0.39 -0.15,0.16 -0.27,0.35 -0.34,0.57 -0.08,0.21 -0.12,0.43 -0.12,0.66 0,0.23 0.04,0.45 0.12,0.66 0.07,0.21 0.19,0.4 0.34,0.57 z"
   id="path1113" />
	<path
   class="st0"
   d="m 348.98,351.41 c -0.26,-0.28 -0.58,-0.5 -0.95,-0.66 -0.37,-0.16 -0.78,-0.24 -1.23,-0.24 -0.45,0 -0.86,0.08 -1.22,0.24 -0.36,0.16 -0.68,0.38 -0.94,0.66 -0.26,0.28 -0.47,0.61 -0.61,0.99 -0.14,0.38 -0.22,0.78 -0.22,1.22 0,0.47 0.07,0.9 0.22,1.29 0.14,0.39 0.35,0.73 0.61,1.02 0.26,0.29 0.58,0.51 0.94,0.68 0.36,0.16 0.77,0.25 1.22,0.25 0.45,0 0.86,-0.08 1.23,-0.25 0.37,-0.16 0.68,-0.39 0.95,-0.68 0.26,-0.29 0.46,-0.63 0.61,-1.02 0.14,-0.39 0.21,-0.82 0.21,-1.29 0,-0.43 -0.07,-0.84 -0.21,-1.22 -0.15,-0.37 -0.35,-0.7 -0.61,-0.99 z"
   id="path1115" />
	<path
   class="st0"
   d="m 457.48,353.09 c -0.44,0 -0.79,0.13 -1.05,0.38 -0.26,0.25 -0.42,0.59 -0.47,1.02 h 3.02 c -0.01,-0.43 -0.14,-0.78 -0.41,-1.03 -0.26,-0.24 -0.62,-0.37 -1.09,-0.37 z"
   id="path1117" />
	<path
   class="st0"
   d="m 366.64,341.37 c -0.25,0.02 -0.49,0.06 -0.72,0.12 -0.23,0.06 -0.42,0.15 -0.57,0.27 -0.16,0.12 -0.23,0.28 -0.23,0.5 0,0.14 0.03,0.26 0.09,0.35 0.06,0.09 0.14,0.17 0.24,0.24 0.1,0.07 0.21,0.11 0.33,0.14 0.12,0.03 0.25,0.04 0.37,0.04 0.51,0 0.88,-0.12 1.12,-0.36 0.24,-0.24 0.36,-0.57 0.36,-0.99 v -0.33 h -0.31 c -0.19,-0.01 -0.42,0 -0.68,0.02 z"
   id="path1119" />
	<path
   class="st0"
   d="m 483.04,353.09 c -0.44,0 -0.79,0.13 -1.05,0.38 -0.26,0.25 -0.42,0.59 -0.47,1.02 h 3.02 c -0.01,-0.43 -0.14,-0.78 -0.41,-1.03 -0.26,-0.24 -0.62,-0.37 -1.09,-0.37 z"
   id="path1121" />
	<path
   class="st0"
   d="m 459.08,339.81 c -0.15,-0.16 -0.33,-0.29 -0.55,-0.39 -0.21,-0.1 -0.45,-0.15 -0.72,-0.15 -0.27,0 -0.51,0.05 -0.73,0.15 -0.21,0.1 -0.4,0.23 -0.55,0.39 -0.15,0.16 -0.27,0.35 -0.34,0.57 -0.08,0.21 -0.12,0.43 -0.12,0.66 0,0.23 0.04,0.45 0.12,0.66 0.08,0.21 0.19,0.4 0.34,0.57 0.15,0.16 0.33,0.29 0.55,0.39 0.21,0.1 0.45,0.15 0.73,0.15 0.27,0 0.51,-0.05 0.72,-0.15 0.21,-0.1 0.4,-0.23 0.55,-0.39 0.15,-0.16 0.27,-0.35 0.34,-0.57 0.08,-0.21 0.12,-0.43 0.12,-0.66 0,-0.23 -0.04,-0.45 -0.12,-0.66 -0.07,-0.22 -0.19,-0.41 -0.34,-0.57 z"
   id="path1123" />
	<path
   class="st0"
   d="m 484.28,339.81 c -0.15,-0.16 -0.33,-0.29 -0.55,-0.39 -0.21,-0.1 -0.45,-0.15 -0.72,-0.15 -0.27,0 -0.51,0.05 -0.73,0.15 -0.21,0.1 -0.4,0.23 -0.55,0.39 -0.15,0.16 -0.27,0.35 -0.34,0.57 -0.08,0.21 -0.12,0.43 -0.12,0.66 0,0.23 0.04,0.45 0.12,0.66 0.08,0.21 0.19,0.4 0.34,0.57 0.15,0.16 0.33,0.29 0.55,0.39 0.21,0.1 0.45,0.15 0.73,0.15 0.27,0 0.51,-0.05 0.72,-0.15 0.21,-0.1 0.4,-0.23 0.55,-0.39 0.15,-0.16 0.27,-0.35 0.34,-0.57 0.08,-0.21 0.12,-0.43 0.12,-0.66 0,-0.23 -0.04,-0.45 -0.12,-0.66 -0.07,-0.22 -0.19,-0.41 -0.34,-0.57 z"
   id="path1125" />
	<path
   class="st0"
   d="m 467.93,353.09 c -0.44,0 -0.79,0.13 -1.05,0.38 -0.26,0.25 -0.42,0.59 -0.47,1.02 h 3.02 c -0.01,-0.43 -0.14,-0.78 -0.41,-1.03 -0.26,-0.24 -0.62,-0.37 -1.09,-0.37 z"
   id="path1127" />
	<path
   d="m 475,324 c 7,0 13,-3 18,-7 4,-5 7,-11 7,-17 0,-6 -2,-13 -7,-17 -5,-5 -11,-7 -17,-7 -15,0 -26,10 -26,24 0,13 12,24 25,24 z m 0,-39 c 8,0 15,6 15,15 0,8 -7,15 -15,15 -8,0 -15,-7 -15,-15 0,-8 7,-15 15,-15 z"
   id="path1129"
   style="fill:#ffffff" />
	<path
   d="m 363.27,282.14 c 7.15,0 10.47,4.21 10.47,13.26 v 25.58 h 10.19 v -28.04 c 0,-12.3 -7.76,-20.25 -19.76,-20.25 -8.3,0 -12.03,4.66 -12.03,4.66 l -10.19,4.85 v 38.78 h 10.19 v -25.66 c 0,-8.13 4.27,-13.18 11.13,-13.18 z"
   id="path1131"
   style="fill:#ffffff" />
	<polygon
   points="388.68,272.69 388.68,320.98 398.98,320.98 398.98,267.84 "
   id="polygon1133"
   style="fill:#ffffff" />
	<path
   d="m 414.02,277.2 v -11.18 l 0.01,-5.26 -10.3,4.85 -0.01,4.74 v 16.46 34.09 h 10.19 v -25.42 c 0,-8.41 4.16,-13.42 11.13,-13.42 4.5,0 10.47,1.38 10.47,13.34 v 25.5 h 10.19 v -28.12 c 0,-12.25 -7.76,-20.17 -19.76,-20.17 -4.99,0 -9.06,1.58 -11.92,4.59 z"
   id="path1135"
   style="fill:#ffffff" />
	<path
   class="st1"
   d="m 403.72,249.17 c 0,-8.16 -6.62,-14.78 -14.78,-14.78 l 14.78,25.98 z"
   id="path1137" />
	<path
   class="st2"
   d="m 415.96,248.13 c -6.76,0 -12.24,5.48 -12.24,12.24 l 26.02,-12.24 z"
   id="path1139" />
	<polygon
   points="352.96,343.99 354.43,343.99 354.43,336.76 354.45,336.76 357.1,343.99 358.18,343.99 360.82,336.76 360.84,336.76 360.84,343.99 362.32,343.99 362.32,335.29 359.98,335.29 357.64,341.38 355.31,335.29 352.96,335.29 "
   id="polygon1141"
   style="fill:#ffffff" />
	<path
   d="m 368.96,339.54 c -0.05,-0.2 -0.12,-0.39 -0.22,-0.58 -0.1,-0.19 -0.25,-0.36 -0.44,-0.51 -0.19,-0.15 -0.43,-0.27 -0.71,-0.36 -0.29,-0.09 -0.64,-0.14 -1.06,-0.14 -0.47,0 -0.92,0.07 -1.36,0.22 -0.44,0.15 -0.82,0.39 -1.15,0.73 l 0.77,0.77 c 0.2,-0.19 0.43,-0.34 0.7,-0.45 0.27,-0.11 0.56,-0.17 0.87,-0.17 0.39,0 0.72,0.09 0.97,0.28 0.25,0.18 0.38,0.46 0.38,0.83 v 0.16 h -0.37 c -0.25,0 -0.51,0.01 -0.79,0.02 -0.28,0.01 -0.56,0.04 -0.83,0.09 -0.27,0.05 -0.54,0.11 -0.79,0.2 -0.25,0.09 -0.48,0.21 -0.67,0.36 -0.19,0.15 -0.35,0.34 -0.46,0.57 -0.11,0.23 -0.17,0.5 -0.17,0.82 0,0.29 0.06,0.55 0.18,0.77 0.12,0.22 0.28,0.41 0.49,0.55 0.2,0.15 0.43,0.26 0.69,0.33 0.26,0.07 0.52,0.11 0.79,0.11 0.39,0 0.75,-0.08 1.08,-0.23 0.33,-0.15 0.6,-0.4 0.81,-0.73 h 0.04 v 0.81 h 1.33 v -3.39 c 0,-0.14 0,-0.3 -0.01,-0.49 0,-0.18 -0.02,-0.38 -0.07,-0.57 z m -1.32,2.14 c 0,0.42 -0.12,0.75 -0.36,0.99 -0.24,0.24 -0.62,0.36 -1.12,0.36 -0.12,0 -0.25,-0.01 -0.37,-0.04 -0.12,-0.03 -0.23,-0.08 -0.33,-0.14 -0.1,-0.07 -0.18,-0.15 -0.24,-0.24 -0.06,-0.09 -0.09,-0.21 -0.09,-0.35 0,-0.21 0.08,-0.38 0.23,-0.5 0.16,-0.12 0.35,-0.21 0.57,-0.27 0.23,-0.06 0.46,-0.1 0.72,-0.12 0.25,-0.02 0.48,-0.02 0.69,-0.02 h 0.31 v 0.33 z"
   id="path1143"
   style="fill:#ffffff" />
	<polygon
   points="374.36,343.99 376.32,343.99 373.62,340.77 376.16,338.09 374.26,338.09 371.99,340.53 371.99,334.7 370.52,334.7 370.52,343.99 371.99,343.99 371.99,340.98 372.01,340.98 "
   id="polygon1145"
   style="fill:#ffffff" />
	<path
   d="m 382.67,341.15 c 0,-0.52 -0.07,-0.97 -0.2,-1.37 -0.14,-0.4 -0.32,-0.73 -0.57,-1 -0.24,-0.27 -0.53,-0.48 -0.87,-0.62 -0.34,-0.14 -0.71,-0.22 -1.12,-0.22 -0.44,0 -0.86,0.07 -1.25,0.22 -0.39,0.15 -0.73,0.36 -1.02,0.63 -0.29,0.27 -0.51,0.6 -0.68,0.98 -0.17,0.38 -0.25,0.8 -0.25,1.27 0,0.47 0.08,0.89 0.25,1.27 0.17,0.38 0.4,0.71 0.68,0.98 0.29,0.27 0.63,0.48 1.02,0.63 0.39,0.15 0.81,0.22 1.25,0.22 0.47,0 0.91,-0.09 1.34,-0.27 0.43,-0.18 0.81,-0.48 1.16,-0.91 l -1.06,-0.8 c -0.19,0.23 -0.41,0.42 -0.66,0.57 -0.25,0.15 -0.56,0.23 -0.93,0.23 -0.42,0 -0.77,-0.12 -1.07,-0.37 -0.3,-0.25 -0.47,-0.59 -0.52,-1.03 h 4.5 z m -4.5,-0.7 c 0.06,-0.43 0.22,-0.77 0.47,-1.02 0.26,-0.25 0.61,-0.38 1.05,-0.38 0.47,0 0.83,0.12 1.09,0.37 0.26,0.25 0.4,0.59 0.41,1.03 z"
   id="path1147"
   style="fill:#ffffff" />
	<path
   d="m 393.3,342.31 c 0.17,-0.38 0.25,-0.8 0.25,-1.27 0,-0.47 -0.08,-0.89 -0.25,-1.27 -0.17,-0.38 -0.4,-0.71 -0.68,-0.98 -0.29,-0.27 -0.63,-0.48 -1.02,-0.63 -0.39,-0.15 -0.81,-0.22 -1.25,-0.22 -0.44,0 -0.86,0.07 -1.25,0.22 -0.39,0.15 -0.73,0.36 -1.02,0.63 -0.29,0.27 -0.51,0.6 -0.68,0.98 -0.17,0.38 -0.25,0.8 -0.25,1.27 0,0.47 0.08,0.89 0.25,1.27 0.17,0.38 0.4,0.71 0.68,0.98 0.29,0.27 0.63,0.48 1.02,0.63 0.39,0.15 0.81,0.22 1.25,0.22 0.44,0 0.86,-0.07 1.25,-0.22 0.39,-0.15 0.73,-0.36 1.02,-0.63 0.29,-0.27 0.52,-0.6 0.68,-0.98 z m -1.34,-0.61 c -0.08,0.21 -0.19,0.4 -0.34,0.57 -0.15,0.16 -0.33,0.29 -0.55,0.39 -0.21,0.1 -0.45,0.15 -0.73,0.15 -0.27,0 -0.51,-0.05 -0.72,-0.15 -0.21,-0.1 -0.4,-0.23 -0.55,-0.39 -0.15,-0.16 -0.27,-0.35 -0.34,-0.57 -0.08,-0.21 -0.12,-0.43 -0.12,-0.66 0,-0.23 0.04,-0.45 0.12,-0.66 0.08,-0.21 0.19,-0.4 0.34,-0.57 0.15,-0.16 0.33,-0.29 0.55,-0.39 0.21,-0.1 0.45,-0.15 0.72,-0.15 0.27,0 0.51,0.05 0.73,0.15 0.21,0.1 0.4,0.23 0.55,0.39 0.15,0.16 0.27,0.35 0.34,0.57 0.08,0.21 0.12,0.43 0.12,0.66 0,0.23 -0.04,0.45 -0.12,0.66 z"
   id="path1149"
   style="fill:#ffffff" />
	<path
   d="m 400.19,343.99 v -3.72 c 0,-0.3 -0.04,-0.59 -0.11,-0.87 -0.07,-0.28 -0.2,-0.52 -0.37,-0.74 -0.17,-0.21 -0.4,-0.39 -0.67,-0.52 -0.27,-0.13 -0.61,-0.2 -1,-0.2 -0.49,0 -0.88,0.11 -1.17,0.33 -0.29,0.22 -0.5,0.47 -0.64,0.77 h -0.02 v -0.95 h -1.4 v 5.9 h 1.47 v -3.22 c 0,-0.2 0.02,-0.38 0.07,-0.57 0.05,-0.18 0.13,-0.34 0.24,-0.48 0.11,-0.14 0.25,-0.25 0.42,-0.33 0.17,-0.08 0.37,-0.12 0.62,-0.12 0.25,0 0.45,0.06 0.6,0.18 0.15,0.12 0.26,0.27 0.33,0.44 0.07,0.18 0.11,0.36 0.13,0.57 0.02,0.2 0.02,0.38 0.02,0.55 V 344 h 1.48 z"
   id="path1151"
   style="fill:#ffffff" />
	<path
   d="m 406.65,338.78 c -0.24,-0.27 -0.53,-0.48 -0.87,-0.62 -0.34,-0.14 -0.71,-0.22 -1.12,-0.22 -0.44,0 -0.86,0.07 -1.25,0.22 -0.39,0.15 -0.73,0.36 -1.02,0.63 -0.29,0.27 -0.51,0.6 -0.68,0.98 -0.17,0.38 -0.25,0.8 -0.25,1.27 0,0.47 0.08,0.89 0.25,1.27 0.17,0.38 0.4,0.71 0.68,0.98 0.29,0.27 0.63,0.48 1.02,0.63 0.39,0.15 0.81,0.22 1.25,0.22 0.47,0 0.91,-0.09 1.34,-0.27 0.43,-0.18 0.81,-0.48 1.16,-0.91 l -1.06,-0.8 c -0.19,0.23 -0.41,0.42 -0.66,0.57 -0.25,0.15 -0.56,0.23 -0.93,0.23 -0.42,0 -0.77,-0.12 -1.07,-0.37 -0.3,-0.25 -0.47,-0.59 -0.52,-1.03 h 4.5 v -0.41 c 0,-0.52 -0.07,-0.97 -0.2,-1.37 -0.14,-0.4 -0.33,-0.73 -0.57,-1 z m -3.73,1.67 c 0.06,-0.43 0.22,-0.77 0.47,-1.02 0.26,-0.25 0.61,-0.38 1.05,-0.38 0.47,0 0.83,0.12 1.09,0.37 0.26,0.25 0.4,0.59 0.41,1.03 z"
   id="path1153"
   style="fill:#ffffff" />
	<path
   d="m 414.69,342.87 c -0.1,0.06 -0.2,0.1 -0.32,0.12 -0.11,0.02 -0.23,0.04 -0.33,0.04 -0.31,0 -0.58,-0.07 -0.79,-0.2 -0.22,-0.14 -0.42,-0.31 -0.61,-0.52 l -0.98,0.92 c 0.3,0.34 0.65,0.58 1.03,0.71 0.38,0.13 0.81,0.2 1.27,0.2 0.3,0 0.61,-0.03 0.91,-0.1 0.3,-0.07 0.58,-0.17 0.82,-0.32 0.24,-0.15 0.44,-0.34 0.59,-0.58 0.15,-0.24 0.23,-0.54 0.23,-0.89 0,-0.38 -0.08,-0.69 -0.23,-0.91 -0.16,-0.22 -0.35,-0.4 -0.59,-0.52 -0.24,-0.13 -0.49,-0.22 -0.77,-0.28 -0.27,-0.06 -0.53,-0.12 -0.77,-0.18 -0.24,-0.06 -0.43,-0.13 -0.59,-0.21 -0.16,-0.08 -0.23,-0.21 -0.23,-0.39 0,-0.22 0.09,-0.38 0.28,-0.48 0.19,-0.1 0.38,-0.15 0.58,-0.15 0.48,0 0.87,0.2 1.16,0.6 l 0.98,-0.88 c -0.24,-0.33 -0.55,-0.56 -0.93,-0.69 -0.39,-0.14 -0.77,-0.2 -1.17,-0.2 -0.29,0 -0.59,0.04 -0.87,0.11 -0.29,0.07 -0.54,0.19 -0.76,0.34 -0.22,0.16 -0.4,0.35 -0.53,0.6 -0.14,0.24 -0.2,0.53 -0.2,0.85 0,0.38 0.08,0.67 0.23,0.88 0.16,0.21 0.35,0.38 0.59,0.5 0.24,0.12 0.49,0.2 0.77,0.26 0.27,0.05 0.53,0.11 0.77,0.17 0.24,0.06 0.43,0.14 0.59,0.24 0.16,0.1 0.23,0.25 0.23,0.45 0,0.11 -0.03,0.22 -0.09,0.3 -0.09,0.08 -0.17,0.15 -0.27,0.21 z"
   id="path1155"
   style="fill:#ffffff" />
	<path
   d="m 421.14,339.34 v -1.25 h -1.62 v -1.71 h -1.47 v 1.71 h -1.22 v 1.25 h 1.22 v 2.7 c 0,0.34 0.03,0.65 0.08,0.91 0.05,0.26 0.15,0.48 0.3,0.66 0.14,0.18 0.34,0.31 0.59,0.39 0.25,0.09 0.57,0.13 0.96,0.13 0.17,0 0.37,-0.01 0.6,-0.04 0.23,-0.03 0.42,-0.08 0.57,-0.15 v -1.24 c -0.09,0.07 -0.21,0.11 -0.37,0.14 -0.16,0.03 -0.3,0.04 -0.43,0.04 -0.33,0 -0.55,-0.09 -0.66,-0.26 -0.11,-0.17 -0.17,-0.41 -0.17,-0.7 v -2.58 z"
   id="path1157"
   style="fill:#ffffff" />
	<path
   d="m 427.58,342.95 -1.06,-0.8 c -0.19,0.23 -0.41,0.42 -0.66,0.57 -0.25,0.15 -0.56,0.23 -0.93,0.23 -0.42,0 -0.77,-0.12 -1.07,-0.37 -0.3,-0.25 -0.47,-0.59 -0.52,-1.03 h 4.5 v -0.41 c 0,-0.52 -0.07,-0.97 -0.2,-1.37 -0.13,-0.4 -0.32,-0.73 -0.57,-1 -0.24,-0.27 -0.53,-0.48 -0.87,-0.62 -0.34,-0.14 -0.71,-0.22 -1.12,-0.22 -0.44,0 -0.86,0.07 -1.25,0.22 -0.39,0.15 -0.73,0.36 -1.02,0.63 -0.29,0.27 -0.51,0.6 -0.68,0.98 -0.17,0.38 -0.25,0.8 -0.25,1.27 0,0.47 0.08,0.89 0.25,1.27 0.17,0.38 0.39,0.71 0.68,0.98 0.29,0.27 0.63,0.48 1.02,0.63 0.39,0.15 0.81,0.22 1.25,0.22 0.47,0 0.91,-0.09 1.34,-0.27 0.43,-0.18 0.82,-0.48 1.16,-0.91 z m -3.75,-3.52 c 0.26,-0.25 0.61,-0.38 1.05,-0.38 0.47,0 0.83,0.12 1.09,0.37 0.26,0.25 0.4,0.59 0.41,1.03 h -3.02 c 0.05,-0.43 0.21,-0.77 0.47,-1.02 z"
   id="path1159"
   style="fill:#ffffff" />
	<path
   d="m 429.1,338.09 v 8.7 h 1.47 v -3.55 h 0.04 c 0.07,0.1 0.17,0.2 0.28,0.3 0.11,0.1 0.25,0.2 0.42,0.29 0.16,0.09 0.35,0.16 0.57,0.22 0.21,0.06 0.46,0.09 0.74,0.09 0.42,0 0.8,-0.08 1.16,-0.24 0.35,-0.16 0.65,-0.38 0.9,-0.66 0.25,-0.28 0.44,-0.61 0.58,-0.98 0.14,-0.38 0.21,-0.78 0.21,-1.22 0,-0.43 -0.07,-0.84 -0.2,-1.22 -0.13,-0.38 -0.32,-0.7 -0.58,-0.98 -0.25,-0.28 -0.56,-0.5 -0.92,-0.66 -0.36,-0.16 -0.77,-0.24 -1.22,-0.24 -0.42,0 -0.81,0.08 -1.17,0.25 -0.36,0.16 -0.65,0.43 -0.86,0.79 h -0.02 v -0.88 h -1.4 z m 1.55,2.28 c 0.08,-0.21 0.19,-0.4 0.34,-0.57 0.15,-0.16 0.33,-0.29 0.55,-0.39 0.21,-0.1 0.45,-0.15 0.73,-0.15 0.27,0 0.51,0.05 0.73,0.15 0.21,0.1 0.39,0.23 0.55,0.39 0.15,0.16 0.27,0.35 0.34,0.57 0.08,0.21 0.12,0.43 0.12,0.66 0,0.23 -0.04,0.45 -0.12,0.66 -0.08,0.21 -0.19,0.4 -0.34,0.57 -0.15,0.16 -0.33,0.29 -0.55,0.39 -0.21,0.1 -0.45,0.15 -0.73,0.15 -0.27,0 -0.51,-0.05 -0.73,-0.15 -0.21,-0.1 -0.4,-0.23 -0.55,-0.39 -0.15,-0.16 -0.27,-0.35 -0.34,-0.57 -0.08,-0.21 -0.12,-0.43 -0.12,-0.66 0,-0.22 0.04,-0.44 0.12,-0.66 z"
   id="path1161"
   style="fill:#ffffff" />
	<path
   d="m 440.99,335.2 c -0.27,0 -0.49,0.09 -0.67,0.26 -0.18,0.18 -0.26,0.38 -0.26,0.62 0,0.24 0.09,0.44 0.26,0.62 0.18,0.18 0.4,0.26 0.67,0.26 0.27,0 0.5,-0.08 0.68,-0.25 0.18,-0.17 0.28,-0.38 0.28,-0.63 0,-0.25 -0.09,-0.46 -0.28,-0.63 -0.19,-0.17 -0.41,-0.25 -0.68,-0.25 z"
   id="path1163"
   style="fill:#ffffff" />
	<rect
   x="440.26001"
   y="338.09"
   width="1.47"
   height="5.9000001"
   id="rect1165"
   style="fill:#ffffff" />
	<path
   d="m 448.69,343.99 v -3.72 c 0,-0.3 -0.04,-0.59 -0.11,-0.87 -0.07,-0.28 -0.2,-0.52 -0.37,-0.74 -0.17,-0.21 -0.39,-0.39 -0.67,-0.52 -0.27,-0.13 -0.61,-0.2 -1,-0.2 -0.49,0 -0.88,0.11 -1.17,0.33 -0.29,0.22 -0.5,0.47 -0.64,0.77 h -0.02 v -0.95 h -1.4 v 5.9 h 1.47 v -3.22 c 0,-0.2 0.02,-0.38 0.07,-0.57 0.05,-0.19 0.13,-0.34 0.24,-0.48 0.11,-0.14 0.25,-0.25 0.42,-0.33 0.17,-0.08 0.37,-0.12 0.62,-0.12 0.25,0 0.45,0.06 0.6,0.18 0.15,0.12 0.26,0.27 0.33,0.44 0.07,0.18 0.11,0.36 0.13,0.57 0.02,0.2 0.02,0.38 0.02,0.55 V 344 h 1.48 z"
   id="path1167"
   style="fill:#ffffff" />
	<path
   d="m 452.24,336.38 h -1.47 v 1.71 h -1.22 v 1.25 h 1.22 v 2.7 c 0,0.34 0.03,0.65 0.08,0.91 0.05,0.26 0.15,0.48 0.29,0.66 0.14,0.18 0.34,0.31 0.59,0.39 0.25,0.09 0.57,0.13 0.96,0.13 0.17,0 0.37,-0.01 0.6,-0.04 0.23,-0.03 0.42,-0.08 0.57,-0.15 v -1.24 c -0.09,0.07 -0.21,0.11 -0.37,0.14 -0.16,0.03 -0.3,0.04 -0.43,0.04 -0.33,0 -0.55,-0.09 -0.66,-0.26 -0.11,-0.17 -0.17,-0.41 -0.17,-0.7 v -2.58 h 1.62 v -1.25 h -1.62 v -1.71 z"
   id="path1169"
   style="fill:#ffffff" />
	<path
   d="m 460.08,338.79 c -0.29,-0.27 -0.63,-0.48 -1.02,-0.63 -0.39,-0.15 -0.81,-0.22 -1.25,-0.22 -0.44,0 -0.86,0.07 -1.25,0.22 -0.39,0.15 -0.73,0.36 -1.02,0.63 -0.29,0.27 -0.51,0.6 -0.68,0.98 -0.17,0.38 -0.25,0.8 -0.25,1.27 0,0.47 0.08,0.89 0.25,1.27 0.17,0.38 0.39,0.71 0.68,0.98 0.29,0.27 0.63,0.48 1.02,0.63 0.39,0.15 0.81,0.22 1.25,0.22 0.44,0 0.86,-0.07 1.25,-0.22 0.39,-0.15 0.73,-0.36 1.02,-0.63 0.29,-0.27 0.51,-0.6 0.68,-0.98 0.17,-0.38 0.25,-0.8 0.25,-1.27 0,-0.47 -0.08,-0.89 -0.25,-1.27 -0.17,-0.38 -0.39,-0.71 -0.68,-0.98 z m -0.66,2.91 c -0.08,0.21 -0.19,0.4 -0.34,0.57 -0.15,0.16 -0.33,0.29 -0.55,0.39 -0.21,0.1 -0.45,0.15 -0.72,0.15 -0.27,0 -0.51,-0.05 -0.73,-0.15 -0.21,-0.1 -0.4,-0.23 -0.55,-0.39 -0.15,-0.16 -0.27,-0.35 -0.34,-0.57 -0.08,-0.21 -0.12,-0.43 -0.12,-0.66 0,-0.23 0.04,-0.45 0.12,-0.66 0.08,-0.21 0.19,-0.4 0.34,-0.57 0.15,-0.16 0.33,-0.29 0.55,-0.39 0.21,-0.1 0.45,-0.15 0.73,-0.15 0.27,0 0.51,0.05 0.72,0.15 0.21,0.1 0.4,0.23 0.55,0.39 0.15,0.16 0.27,0.35 0.34,0.57 0.08,0.21 0.12,0.43 0.12,0.66 0,0.23 -0.04,0.45 -0.12,0.66 z"
   id="path1171"
   style="fill:#ffffff" />
	<path
   d="m 469.41,339.34 v -1.25 h -1.62 v -1.71 h -1.47 v 1.71 h -1.22 v 1.25 h 1.22 v 2.7 c 0,0.34 0.03,0.65 0.08,0.91 0.05,0.26 0.15,0.48 0.29,0.66 0.14,0.18 0.34,0.31 0.59,0.39 0.25,0.09 0.57,0.13 0.96,0.13 0.17,0 0.37,-0.01 0.6,-0.04 0.23,-0.03 0.42,-0.08 0.57,-0.15 v -1.24 c -0.09,0.07 -0.21,0.11 -0.37,0.14 -0.16,0.03 -0.3,0.04 -0.43,0.04 -0.33,0 -0.55,-0.09 -0.66,-0.26 -0.11,-0.17 -0.17,-0.41 -0.17,-0.7 v -2.58 z"
   id="path1173"
   style="fill:#ffffff" />
	<polygon
   points="475.33,338.09 473.73,338.09 472.54,342.22 472.52,342.22 471.24,338.09 469.64,338.09 471.69,343.99 473.22,343.99 474.46,339.96 474.48,339.96 475.89,343.99 477.35,343.99 479.35,338.09 477.86,338.09 476.63,342.22 476.61,342.22 "
   id="polygon1175"
   style="fill:#ffffff" />
	<path
   d="m 485.29,338.79 c -0.29,-0.27 -0.63,-0.48 -1.02,-0.63 -0.39,-0.15 -0.81,-0.22 -1.25,-0.22 -0.44,0 -0.86,0.07 -1.25,0.22 -0.39,0.15 -0.73,0.36 -1.02,0.63 -0.29,0.27 -0.51,0.6 -0.68,0.98 -0.17,0.38 -0.25,0.8 -0.25,1.27 0,0.47 0.08,0.89 0.25,1.27 0.17,0.38 0.39,0.71 0.68,0.98 0.29,0.27 0.63,0.48 1.02,0.63 0.39,0.15 0.81,0.22 1.25,0.22 0.44,0 0.86,-0.07 1.25,-0.22 0.39,-0.15 0.73,-0.36 1.02,-0.63 0.29,-0.27 0.51,-0.6 0.68,-0.98 0.17,-0.38 0.25,-0.8 0.25,-1.27 0,-0.47 -0.08,-0.89 -0.25,-1.27 -0.17,-0.38 -0.4,-0.71 -0.68,-0.98 z m -0.66,2.91 c -0.08,0.21 -0.19,0.4 -0.34,0.57 -0.15,0.16 -0.33,0.29 -0.55,0.39 -0.21,0.1 -0.45,0.15 -0.72,0.15 -0.27,0 -0.51,-0.05 -0.73,-0.15 -0.21,-0.1 -0.4,-0.23 -0.55,-0.39 -0.15,-0.16 -0.27,-0.35 -0.34,-0.57 -0.08,-0.21 -0.12,-0.43 -0.12,-0.66 0,-0.23 0.04,-0.45 0.12,-0.66 0.08,-0.21 0.19,-0.4 0.34,-0.57 0.15,-0.16 0.33,-0.29 0.55,-0.39 0.21,-0.1 0.45,-0.15 0.73,-0.15 0.27,0 0.51,0.05 0.72,0.15 0.21,0.1 0.4,0.23 0.55,0.39 0.15,0.16 0.27,0.35 0.34,0.57 0.08,0.21 0.12,0.43 0.12,0.66 -0.01,0.23 -0.04,0.45 -0.12,0.66 z"
   id="path1177"
   style="fill:#ffffff" />
	<path
   d="m 487.76,342.45 c -0.19,0.19 -0.29,0.41 -0.29,0.68 0,0.13 0.03,0.25 0.08,0.37 0.05,0.11 0.12,0.21 0.21,0.29 0.09,0.08 0.19,0.15 0.31,0.2 0.12,0.05 0.24,0.07 0.37,0.07 0.27,0 0.5,-0.09 0.69,-0.28 0.19,-0.19 0.29,-0.41 0.29,-0.68 0,-0.26 -0.1,-0.48 -0.29,-0.66 -0.2,-0.18 -0.43,-0.27 -0.69,-0.27 -0.25,0 -0.49,0.09 -0.68,0.28 z"
   id="path1179"
   style="fill:#ffffff" />
	<path
   d="m 350.12,350.33 c -0.41,-0.4 -0.9,-0.71 -1.46,-0.92 -0.57,-0.21 -1.19,-0.31 -1.87,-0.3 -0.67,0 -1.29,0.11 -1.85,0.33 -0.56,0.22 -1.04,0.53 -1.45,0.93 -0.41,0.4 -0.72,0.89 -0.95,1.46 -0.23,0.57 -0.34,1.2 -0.34,1.9 0,0.68 0.11,1.3 0.34,1.86 0.23,0.56 0.55,1.03 0.95,1.43 0.41,0.4 0.89,0.71 1.45,0.92 0.56,0.22 1.18,0.33 1.85,0.33 0.68,-0.01 1.3,-0.13 1.87,-0.35 0.57,-0.23 1.05,-0.54 1.46,-0.94 0.41,-0.4 0.73,-0.88 0.96,-1.44 0.23,-0.56 0.34,-1.18 0.34,-1.86 0,-0.7 -0.11,-1.33 -0.34,-1.89 -0.23,-0.58 -0.55,-1.06 -0.96,-1.46 z m -0.53,4.58 c -0.14,0.39 -0.35,0.73 -0.61,1.02 -0.26,0.29 -0.58,0.51 -0.95,0.68 -0.37,0.16 -0.78,0.25 -1.23,0.25 -0.45,0 -0.86,-0.08 -1.22,-0.25 -0.36,-0.16 -0.68,-0.39 -0.94,-0.68 -0.26,-0.29 -0.47,-0.63 -0.61,-1.02 -0.14,-0.39 -0.22,-0.82 -0.22,-1.29 0,-0.43 0.07,-0.84 0.22,-1.22 0.14,-0.38 0.35,-0.71 0.61,-0.99 0.26,-0.28 0.58,-0.5 0.94,-0.66 0.36,-0.16 0.77,-0.24 1.22,-0.24 0.45,0 0.86,0.08 1.23,0.24 0.37,0.16 0.68,0.38 0.95,0.66 0.26,0.28 0.46,0.61 0.61,0.99 0.14,0.38 0.21,0.78 0.21,1.22 0,0.47 -0.07,0.9 -0.21,1.29 z"
   id="path1181"
   style="fill:#ffffff" />
	<path
   d="m 357.54,352.7 c -0.17,-0.21 -0.4,-0.38 -0.67,-0.52 -0.27,-0.13 -0.61,-0.2 -1,-0.2 -0.49,0 -0.88,0.11 -1.17,0.33 -0.29,0.22 -0.5,0.47 -0.64,0.77 h -0.02 v -0.95 h -1.4 v 5.9 h 1.47 v -3.22 c 0,-0.2 0.02,-0.39 0.07,-0.57 0.05,-0.18 0.13,-0.34 0.24,-0.48 0.11,-0.14 0.25,-0.25 0.42,-0.33 0.17,-0.08 0.37,-0.12 0.62,-0.12 0.25,0 0.45,0.06 0.6,0.18 0.15,0.12 0.26,0.27 0.33,0.44 0.07,0.18 0.11,0.36 0.13,0.57 0.02,0.2 0.02,0.38 0.02,0.55 v 2.99 h 1.47 v -3.72 c 0,-0.3 -0.04,-0.59 -0.11,-0.87 -0.06,-0.29 -0.18,-0.54 -0.36,-0.75 z"
   id="path1183"
   style="fill:#ffffff" />
	<path
   d="m 364.48,352.82 c -0.24,-0.27 -0.53,-0.48 -0.87,-0.62 -0.34,-0.14 -0.71,-0.21 -1.12,-0.21 -0.44,0 -0.86,0.07 -1.25,0.22 -0.39,0.15 -0.73,0.36 -1.02,0.63 -0.29,0.27 -0.51,0.6 -0.68,0.98 -0.17,0.38 -0.25,0.81 -0.25,1.27 0,0.46 0.08,0.89 0.25,1.27 0.17,0.38 0.4,0.71 0.68,0.98 0.29,0.27 0.63,0.48 1.02,0.63 0.39,0.15 0.81,0.22 1.25,0.22 0.47,0 0.91,-0.09 1.34,-0.27 0.43,-0.18 0.81,-0.48 1.16,-0.91 l -1.06,-0.8 c -0.19,0.23 -0.41,0.42 -0.66,0.57 -0.25,0.15 -0.56,0.23 -0.93,0.23 -0.42,0 -0.77,-0.12 -1.07,-0.37 -0.3,-0.25 -0.47,-0.59 -0.52,-1.03 h 4.5 v -0.41 c 0,-0.52 -0.07,-0.97 -0.2,-1.37 -0.14,-0.4 -0.33,-0.74 -0.57,-1.01 z m -3.73,1.67 c 0.06,-0.43 0.22,-0.77 0.47,-1.02 0.26,-0.25 0.61,-0.38 1.05,-0.38 0.47,0 0.83,0.13 1.09,0.37 0.26,0.25 0.4,0.59 0.41,1.03 z"
   id="path1185"
   style="fill:#ffffff" />
	<path
   d="m 374.93,352.82 c -0.24,-0.27 -0.53,-0.48 -0.87,-0.62 -0.34,-0.14 -0.71,-0.21 -1.12,-0.21 -0.44,0 -0.86,0.07 -1.25,0.22 -0.39,0.15 -0.73,0.36 -1.02,0.63 -0.29,0.27 -0.51,0.6 -0.68,0.98 -0.17,0.38 -0.25,0.81 -0.25,1.27 0,0.46 0.08,0.89 0.25,1.27 0.17,0.38 0.4,0.71 0.68,0.98 0.29,0.27 0.63,0.48 1.02,0.63 0.39,0.15 0.81,0.22 1.25,0.22 0.47,0 0.91,-0.09 1.34,-0.27 0.43,-0.18 0.81,-0.48 1.16,-0.91 l -1.06,-0.8 c -0.19,0.23 -0.41,0.42 -0.66,0.57 -0.25,0.15 -0.56,0.23 -0.93,0.23 -0.42,0 -0.77,-0.12 -1.07,-0.37 -0.3,-0.25 -0.47,-0.59 -0.52,-1.03 h 4.5 v -0.41 c 0,-0.52 -0.07,-0.97 -0.2,-1.37 -0.14,-0.4 -0.33,-0.74 -0.57,-1.01 z m -3.73,1.67 c 0.06,-0.43 0.22,-0.77 0.47,-1.02 0.26,-0.25 0.61,-0.38 1.05,-0.38 0.47,0 0.83,0.13 1.09,0.37 0.26,0.25 0.4,0.59 0.41,1.03 z"
   id="path1187"
   style="fill:#ffffff" />
	<path
   d="m 382.54,348.78 c -0.29,0.13 -0.51,0.31 -0.67,0.55 -0.16,0.24 -0.27,0.52 -0.33,0.85 -0.06,0.33 -0.09,0.7 -0.09,1.11 v 0.84 h -1.14 -0.07 -1.29 v -1.07 c 0,-0.16 0.01,-0.32 0.03,-0.47 0.02,-0.15 0.07,-0.28 0.14,-0.39 0.07,-0.11 0.17,-0.2 0.29,-0.26 0.12,-0.07 0.29,-0.1 0.49,-0.1 0.11,0 0.21,0.01 0.31,0.02 0.1,0.02 0.2,0.04 0.31,0.06 l 0.1,-1.25 c -0.29,-0.06 -0.6,-0.09 -0.93,-0.09 -0.46,0 -0.83,0.06 -1.12,0.19 -0.29,0.13 -0.51,0.31 -0.67,0.55 -0.16,0.24 -0.27,0.52 -0.33,0.85 -0.06,0.33 -0.09,0.7 -0.09,1.11 v 0.84 h -1.22 v 1.25 h 1.22 v 4.65 h 1.47 v -4.65 h 1.29 0.07 1.14 v 4.65 h 1.47 v -4.65 h 1.36 v -1.25 h -1.36 v -1.07 c 0,-0.16 0.01,-0.32 0.03,-0.47 0.02,-0.15 0.07,-0.28 0.14,-0.39 0.07,-0.11 0.17,-0.2 0.29,-0.26 0.12,-0.07 0.29,-0.1 0.49,-0.1 0.11,0 0.21,0.01 0.31,0.02 0.1,0.02 0.2,0.04 0.31,0.06 l 0.1,-1.25 c -0.29,-0.06 -0.6,-0.09 -0.93,-0.09 -0.46,0.02 -0.83,0.09 -1.12,0.21 z"
   id="path1189"
   style="fill:#ffffff" />
	<path
   d="m 390.04,352.82 c -0.24,-0.27 -0.53,-0.48 -0.87,-0.62 -0.34,-0.14 -0.71,-0.21 -1.12,-0.21 -0.44,0 -0.86,0.07 -1.25,0.22 -0.39,0.15 -0.73,0.36 -1.02,0.63 -0.29,0.27 -0.51,0.6 -0.68,0.98 -0.17,0.38 -0.25,0.81 -0.25,1.27 0,0.46 0.08,0.89 0.25,1.27 0.17,0.38 0.4,0.71 0.68,0.98 0.29,0.27 0.63,0.48 1.02,0.63 0.39,0.15 0.81,0.22 1.25,0.22 0.47,0 0.91,-0.09 1.34,-0.27 0.43,-0.18 0.81,-0.48 1.16,-0.91 l -1.06,-0.8 c -0.19,0.23 -0.41,0.42 -0.66,0.57 -0.25,0.15 -0.56,0.23 -0.93,0.23 -0.42,0 -0.77,-0.12 -1.07,-0.37 -0.3,-0.25 -0.47,-0.59 -0.52,-1.03 h 4.5 v -0.41 c 0,-0.52 -0.07,-0.97 -0.2,-1.37 -0.13,-0.4 -0.33,-0.74 -0.57,-1.01 z m -3.73,1.67 c 0.06,-0.43 0.22,-0.77 0.47,-1.02 0.26,-0.25 0.61,-0.38 1.05,-0.38 0.47,0 0.83,0.13 1.09,0.37 0.26,0.25 0.4,0.59 0.41,1.03 z"
   id="path1191"
   style="fill:#ffffff" />
	<path
   d="m 393.7,353.85 c 0.15,-0.16 0.33,-0.29 0.55,-0.39 0.21,-0.1 0.45,-0.15 0.72,-0.15 0.2,0 0.39,0.05 0.58,0.16 0.19,0.11 0.37,0.25 0.54,0.43 l 1.02,-1.02 c -0.29,-0.31 -0.62,-0.54 -1,-0.68 -0.38,-0.14 -0.76,-0.21 -1.14,-0.21 -0.44,0 -0.86,0.07 -1.25,0.22 -0.39,0.15 -0.73,0.36 -1.02,0.63 -0.29,0.27 -0.51,0.6 -0.68,0.98 -0.17,0.38 -0.25,0.81 -0.25,1.27 0,0.46 0.08,0.89 0.25,1.27 0.17,0.38 0.4,0.71 0.68,0.98 0.29,0.27 0.63,0.48 1.02,0.63 0.39,0.15 0.81,0.22 1.25,0.22 0.13,0 0.29,-0.01 0.47,-0.04 0.18,-0.03 0.37,-0.08 0.57,-0.14 0.2,-0.07 0.39,-0.15 0.58,-0.26 0.19,-0.11 0.36,-0.23 0.51,-0.38 l -0.98,-1.06 c -0.14,0.18 -0.31,0.32 -0.5,0.41 -0.2,0.09 -0.41,0.14 -0.64,0.14 -0.27,0 -0.51,-0.05 -0.72,-0.15 -0.21,-0.1 -0.4,-0.23 -0.55,-0.39 -0.15,-0.16 -0.27,-0.35 -0.34,-0.57 -0.08,-0.21 -0.12,-0.43 -0.12,-0.66 0,-0.23 0.04,-0.45 0.12,-0.66 0.07,-0.22 0.18,-0.41 0.33,-0.58 z"
   id="path1193"
   style="fill:#ffffff" />
	<path
   d="m 399.86,350.42 h -1.47 v 1.71 h -1.22 v 1.25 h 1.22 v 2.7 c 0,0.34 0.03,0.65 0.08,0.91 0.05,0.26 0.15,0.48 0.3,0.66 0.14,0.18 0.34,0.31 0.59,0.39 0.25,0.09 0.57,0.13 0.96,0.13 0.17,0 0.37,-0.01 0.6,-0.04 0.23,-0.03 0.42,-0.08 0.57,-0.15 v -1.24 c -0.09,0.07 -0.21,0.11 -0.37,0.14 -0.16,0.03 -0.3,0.04 -0.43,0.04 -0.33,0 -0.55,-0.09 -0.66,-0.26 -0.11,-0.17 -0.17,-0.41 -0.17,-0.7 v -2.58 h 1.62 v -1.25 h -1.62 z"
   id="path1195"
   style="fill:#ffffff" />
	<polygon
   points="403.47,359.58 404.51,356.33 403.01,356.33 402.15,359.58 "
   id="polygon1197"
   style="fill:#ffffff" />
	<path
   d="m 411.55,350.42 h -1.47 v 1.71 h -1.22 v 1.25 h 1.22 v 2.7 c 0,0.34 0.03,0.65 0.08,0.91 0.05,0.26 0.15,0.48 0.3,0.66 0.14,0.18 0.34,0.31 0.59,0.39 0.25,0.09 0.57,0.13 0.96,0.13 0.17,0 0.37,-0.01 0.6,-0.04 0.23,-0.03 0.42,-0.08 0.57,-0.15 v -1.24 c -0.09,0.07 -0.21,0.11 -0.37,0.14 -0.16,0.03 -0.3,0.04 -0.43,0.04 -0.33,0 -0.55,-0.09 -0.66,-0.26 -0.11,-0.17 -0.17,-0.41 -0.17,-0.7 v -2.58 h 1.62 v -1.25 h -1.62 z"
   id="path1199"
   style="fill:#ffffff" />
	<polygon
   points="420.37,356.26 419.1,352.13 417.5,352.13 416.31,356.26 416.28,356.26 415,352.13 413.41,352.13 415.46,358.03 416.98,358.03 418.22,354 418.25,354 419.65,358.03 421.11,358.03 423.11,352.13 421.63,352.13 420.4,356.26 "
   id="polygon1201"
   style="fill:#ffffff" />
	<rect
   x="423.89001"
   y="352.13"
   width="1.47"
   height="5.9000001"
   id="rect1203"
   style="fill:#ffffff" />
	<path
   d="m 424.61,349.24 c -0.27,0 -0.49,0.09 -0.67,0.26 -0.18,0.18 -0.26,0.38 -0.26,0.62 0,0.24 0.09,0.44 0.26,0.62 0.18,0.18 0.4,0.26 0.67,0.26 0.27,0 0.5,-0.08 0.68,-0.25 0.18,-0.17 0.28,-0.38 0.28,-0.63 0,-0.25 -0.09,-0.47 -0.28,-0.63 -0.18,-0.16 -0.41,-0.25 -0.68,-0.25 z"
   id="path1205"
   style="fill:#ffffff" />
	<path
   d="m 428.58,353.85 c 0.15,-0.16 0.33,-0.29 0.55,-0.39 0.21,-0.1 0.45,-0.15 0.73,-0.15 0.2,0 0.39,0.05 0.58,0.16 0.19,0.11 0.37,0.25 0.54,0.43 l 1.02,-1.02 c -0.29,-0.31 -0.62,-0.54 -1,-0.68 -0.38,-0.14 -0.76,-0.21 -1.14,-0.21 -0.44,0 -0.86,0.07 -1.25,0.22 -0.39,0.15 -0.73,0.36 -1.02,0.63 -0.29,0.27 -0.51,0.6 -0.68,0.98 -0.17,0.38 -0.25,0.81 -0.25,1.27 0,0.46 0.08,0.89 0.25,1.27 0.17,0.38 0.39,0.71 0.68,0.98 0.29,0.27 0.63,0.48 1.02,0.63 0.39,0.15 0.81,0.22 1.25,0.22 0.13,0 0.29,-0.01 0.47,-0.04 0.18,-0.03 0.37,-0.08 0.57,-0.14 0.2,-0.07 0.39,-0.15 0.58,-0.26 0.19,-0.11 0.36,-0.23 0.51,-0.38 l -0.98,-1.06 c -0.14,0.18 -0.31,0.32 -0.5,0.41 -0.2,0.09 -0.41,0.14 -0.64,0.14 -0.27,0 -0.51,-0.05 -0.73,-0.15 -0.21,-0.1 -0.4,-0.23 -0.55,-0.39 -0.15,-0.16 -0.27,-0.35 -0.34,-0.57 -0.08,-0.21 -0.12,-0.43 -0.12,-0.66 0,-0.23 0.04,-0.45 0.12,-0.66 0.06,-0.22 0.17,-0.41 0.33,-0.58 z"
   id="path1207"
   style="fill:#ffffff" />
	<path
   d="m 437.64,352.82 c -0.24,-0.27 -0.53,-0.48 -0.87,-0.62 -0.34,-0.14 -0.71,-0.21 -1.12,-0.21 -0.44,0 -0.86,0.07 -1.25,0.22 -0.39,0.15 -0.73,0.36 -1.02,0.63 -0.29,0.27 -0.51,0.6 -0.68,0.98 -0.17,0.38 -0.25,0.81 -0.25,1.27 0,0.46 0.08,0.89 0.25,1.27 0.17,0.38 0.39,0.71 0.68,0.98 0.29,0.27 0.63,0.48 1.02,0.63 0.39,0.15 0.81,0.22 1.25,0.22 0.47,0 0.91,-0.09 1.34,-0.27 0.43,-0.18 0.81,-0.48 1.15,-0.91 l -1.06,-0.8 c -0.19,0.23 -0.41,0.42 -0.66,0.57 -0.25,0.15 -0.56,0.23 -0.93,0.23 -0.42,0 -0.77,-0.12 -1.07,-0.37 -0.29,-0.25 -0.47,-0.59 -0.52,-1.03 h 4.5 v -0.41 c 0,-0.52 -0.07,-0.97 -0.2,-1.37 -0.12,-0.4 -0.31,-0.74 -0.56,-1.01 z m -3.72,1.67 c 0.06,-0.43 0.21,-0.77 0.47,-1.02 0.26,-0.25 0.61,-0.38 1.05,-0.38 0.47,0 0.83,0.13 1.09,0.37 0.26,0.25 0.4,0.59 0.41,1.03 z"
   id="path1209"
   style="fill:#ffffff" />
	<path
   d="m 445.18,350.42 h -1.47 v 1.71 h -1.22 v 1.25 h 1.22 v 2.7 c 0,0.34 0.03,0.65 0.08,0.91 0.05,0.26 0.15,0.48 0.29,0.66 0.14,0.18 0.34,0.31 0.59,0.39 0.25,0.09 0.57,0.13 0.96,0.13 0.17,0 0.37,-0.01 0.6,-0.04 0.23,-0.03 0.42,-0.08 0.57,-0.15 v -1.24 c -0.09,0.07 -0.21,0.11 -0.37,0.14 -0.16,0.03 -0.3,0.04 -0.43,0.04 -0.33,0 -0.55,-0.09 -0.66,-0.26 -0.11,-0.17 -0.17,-0.41 -0.17,-0.7 v -2.58 h 1.62 v -1.25 h -1.62 v -1.71 z"
   id="path1211"
   style="fill:#ffffff" />
	<path
   d="m 452.75,352.7 c -0.17,-0.21 -0.39,-0.38 -0.67,-0.52 -0.27,-0.13 -0.61,-0.2 -1,-0.2 -0.46,0 -0.83,0.1 -1.12,0.3 -0.29,0.2 -0.49,0.42 -0.61,0.67 h -0.02 v -4.21 h -1.47 v 9.29 h 1.47 v -3.22 c 0,-0.2 0.02,-0.39 0.07,-0.57 0.05,-0.18 0.13,-0.34 0.24,-0.48 0.11,-0.14 0.25,-0.25 0.42,-0.33 0.17,-0.08 0.37,-0.12 0.62,-0.12 0.25,0 0.45,0.06 0.6,0.18 0.15,0.12 0.26,0.27 0.33,0.44 0.07,0.18 0.11,0.36 0.13,0.57 0.02,0.2 0.02,0.38 0.02,0.55 v 2.99 h 1.47 v -3.72 c 0,-0.3 -0.04,-0.59 -0.11,-0.87 -0.07,-0.29 -0.2,-0.54 -0.37,-0.75 z"
   id="path1213"
   style="fill:#ffffff" />
	<path
   d="m 459.69,352.82 c -0.24,-0.27 -0.53,-0.48 -0.87,-0.62 -0.34,-0.14 -0.71,-0.21 -1.12,-0.21 -0.44,0 -0.86,0.07 -1.25,0.22 -0.39,0.15 -0.73,0.36 -1.02,0.63 -0.29,0.27 -0.51,0.6 -0.68,0.98 -0.17,0.38 -0.25,0.81 -0.25,1.27 0,0.46 0.08,0.89 0.25,1.27 0.17,0.38 0.39,0.71 0.68,0.98 0.29,0.27 0.63,0.48 1.02,0.63 0.39,0.15 0.81,0.22 1.25,0.22 0.47,0 0.91,-0.09 1.34,-0.27 0.43,-0.18 0.81,-0.48 1.15,-0.91 l -1.06,-0.8 c -0.19,0.23 -0.41,0.42 -0.66,0.57 -0.25,0.15 -0.56,0.23 -0.93,0.23 -0.42,0 -0.77,-0.12 -1.07,-0.37 -0.29,-0.25 -0.47,-0.59 -0.52,-1.03 h 4.5 v -0.41 c 0,-0.52 -0.07,-0.97 -0.2,-1.37 -0.13,-0.4 -0.32,-0.74 -0.56,-1.01 z m -3.73,1.67 c 0.06,-0.43 0.21,-0.77 0.47,-1.02 0.26,-0.25 0.61,-0.38 1.05,-0.38 0.47,0 0.83,0.13 1.09,0.37 0.26,0.25 0.4,0.59 0.41,1.03 z"
   id="path1215"
   style="fill:#ffffff" />
	<path
   d="m 470.13,352.82 c -0.24,-0.27 -0.53,-0.48 -0.87,-0.62 -0.34,-0.14 -0.71,-0.21 -1.12,-0.21 -0.44,0 -0.86,0.07 -1.25,0.22 -0.39,0.15 -0.73,0.36 -1.02,0.63 -0.29,0.27 -0.51,0.6 -0.68,0.98 -0.17,0.38 -0.25,0.81 -0.25,1.27 0,0.46 0.08,0.89 0.25,1.27 0.17,0.38 0.39,0.71 0.68,0.98 0.29,0.27 0.63,0.48 1.02,0.63 0.39,0.15 0.81,0.22 1.25,0.22 0.47,0 0.91,-0.09 1.34,-0.27 0.43,-0.18 0.81,-0.48 1.15,-0.91 l -1.06,-0.8 c -0.19,0.23 -0.41,0.42 -0.66,0.57 -0.25,0.15 -0.56,0.23 -0.93,0.23 -0.42,0 -0.77,-0.12 -1.07,-0.37 -0.29,-0.25 -0.47,-0.59 -0.52,-1.03 h 4.5 v -0.41 c 0,-0.52 -0.07,-0.97 -0.2,-1.37 -0.13,-0.4 -0.31,-0.74 -0.56,-1.01 z m -3.73,1.67 c 0.06,-0.43 0.21,-0.77 0.47,-1.02 0.26,-0.25 0.61,-0.38 1.05,-0.38 0.47,0 0.83,0.13 1.09,0.37 0.26,0.25 0.4,0.59 0.41,1.03 z"
   id="path1217"
   style="fill:#ffffff" />
	<path
   d="m 477.75,348.78 c -0.29,0.13 -0.51,0.31 -0.67,0.55 -0.16,0.24 -0.27,0.52 -0.33,0.85 -0.06,0.33 -0.09,0.7 -0.09,1.11 v 0.84 h -1.14 -0.07 -1.29 v -1.07 c 0,-0.16 0.01,-0.32 0.03,-0.47 0.02,-0.15 0.07,-0.28 0.14,-0.39 0.07,-0.11 0.17,-0.2 0.29,-0.26 0.12,-0.07 0.29,-0.1 0.49,-0.1 0.11,0 0.21,0.01 0.31,0.02 0.1,0.02 0.2,0.04 0.31,0.06 l 0.1,-1.25 c -0.29,-0.06 -0.6,-0.09 -0.93,-0.09 -0.46,0 -0.83,0.06 -1.12,0.19 -0.29,0.13 -0.51,0.31 -0.67,0.55 -0.16,0.24 -0.27,0.52 -0.33,0.85 -0.06,0.33 -0.09,0.7 -0.09,1.11 v 0.84 h -1.22 v 1.25 h 1.22 v 4.65 h 1.47 v -4.65 h 1.29 0.07 1.14 v 4.65 h 1.47 v -4.65 h 1.36 v -1.25 h -1.36 v -1.07 c 0,-0.16 0.01,-0.32 0.03,-0.47 0.02,-0.15 0.07,-0.28 0.14,-0.39 0.07,-0.11 0.17,-0.2 0.29,-0.26 0.12,-0.07 0.29,-0.1 0.49,-0.1 0.11,0 0.21,0.01 0.31,0.02 0.1,0.02 0.2,0.04 0.31,0.06 l 0.1,-1.25 c -0.29,-0.06 -0.6,-0.09 -0.93,-0.09 -0.46,0.02 -0.84,0.09 -1.12,0.21 z"
   id="path1219"
   style="fill:#ffffff" />
	<path
   d="m 485.25,352.82 c -0.24,-0.27 -0.53,-0.48 -0.87,-0.62 -0.34,-0.14 -0.71,-0.21 -1.12,-0.21 -0.44,0 -0.86,0.07 -1.25,0.22 -0.39,0.15 -0.73,0.36 -1.02,0.63 -0.29,0.27 -0.51,0.6 -0.68,0.98 -0.17,0.38 -0.25,0.81 -0.25,1.27 0,0.46 0.08,0.89 0.25,1.27 0.17,0.38 0.39,0.71 0.68,0.98 0.29,0.27 0.63,0.48 1.02,0.63 0.39,0.15 0.81,0.22 1.25,0.22 0.47,0 0.91,-0.09 1.34,-0.27 0.43,-0.18 0.81,-0.48 1.15,-0.91 l -1.06,-0.8 c -0.19,0.23 -0.41,0.42 -0.66,0.57 -0.25,0.15 -0.56,0.23 -0.93,0.23 -0.42,0 -0.77,-0.12 -1.07,-0.37 -0.29,-0.25 -0.47,-0.59 -0.52,-1.03 h 4.5 v -0.41 c 0,-0.52 -0.07,-0.97 -0.2,-1.37 -0.13,-0.4 -0.32,-0.74 -0.56,-1.01 z m -3.73,1.67 c 0.06,-0.43 0.21,-0.77 0.47,-1.02 0.26,-0.25 0.61,-0.38 1.05,-0.38 0.47,0 0.83,0.13 1.09,0.37 0.26,0.25 0.4,0.59 0.41,1.03 z"
   id="path1221"
   style="fill:#ffffff" />
	<path
   d="m 488.91,353.85 c 0.15,-0.16 0.33,-0.29 0.55,-0.39 0.21,-0.1 0.45,-0.15 0.73,-0.15 0.2,0 0.39,0.05 0.58,0.16 0.19,0.11 0.37,0.25 0.54,0.43 l 1.02,-1.02 c -0.29,-0.31 -0.62,-0.54 -1,-0.68 -0.38,-0.14 -0.76,-0.21 -1.14,-0.21 -0.44,0 -0.86,0.07 -1.25,0.22 -0.39,0.15 -0.73,0.36 -1.02,0.63 -0.29,0.27 -0.51,0.6 -0.68,0.98 -0.17,0.38 -0.25,0.81 -0.25,1.27 0,0.46 0.08,0.89 0.25,1.27 0.17,0.38 0.39,0.71 0.68,0.98 0.29,0.27 0.63,0.48 1.02,0.63 0.39,0.15 0.81,0.22 1.25,0.22 0.13,0 0.29,-0.01 0.47,-0.04 0.18,-0.03 0.37,-0.08 0.57,-0.14 0.2,-0.07 0.39,-0.15 0.58,-0.26 0.19,-0.11 0.36,-0.23 0.51,-0.38 l -0.98,-1.06 c -0.14,0.18 -0.31,0.32 -0.5,0.41 -0.2,0.09 -0.41,0.14 -0.64,0.14 -0.27,0 -0.51,-0.05 -0.73,-0.15 -0.21,-0.1 -0.4,-0.23 -0.55,-0.39 -0.15,-0.16 -0.27,-0.35 -0.34,-0.57 -0.08,-0.21 -0.12,-0.43 -0.12,-0.66 0,-0.23 0.04,-0.45 0.12,-0.66 0.08,-0.21 0.18,-0.41 0.33,-0.58 z"
   id="path1223"
   style="fill:#ffffff" />
	<path
   d="m 495.07,350.42 h -1.47 v 1.71 h -1.22 v 1.25 h 1.22 v 2.7 c 0,0.34 0.03,0.65 0.08,0.91 0.05,0.26 0.15,0.48 0.29,0.66 0.14,0.18 0.34,0.31 0.59,0.39 0.25,0.09 0.57,0.13 0.96,0.13 0.17,0 0.37,-0.01 0.6,-0.04 0.23,-0.03 0.42,-0.08 0.57,-0.15 v -1.24 c -0.09,0.07 -0.21,0.11 -0.37,0.14 -0.16,0.03 -0.3,0.04 -0.43,0.04 -0.33,0 -0.55,-0.09 -0.66,-0.26 -0.11,-0.17 -0.17,-0.41 -0.17,-0.7 v -2.58 h 1.62 v -1.25 h -1.62 v -1.71 z"
   id="path1225"
   style="fill:#ffffff" />
	<path
   d="m 498.71,356.21 c -0.27,0 -0.5,0.09 -0.69,0.28 -0.19,0.19 -0.29,0.41 -0.29,0.68 0,0.13 0.03,0.25 0.08,0.37 0.05,0.12 0.12,0.21 0.21,0.29 0.09,0.08 0.19,0.15 0.31,0.2 0.12,0.05 0.24,0.07 0.37,0.07 0.27,0 0.5,-0.09 0.69,-0.28 0.19,-0.19 0.29,-0.41 0.29,-0.68 0,-0.26 -0.1,-0.48 -0.29,-0.66 -0.19,-0.18 -0.42,-0.27 -0.68,-0.27 z"
   id="path1227"
   style="fill:#ffffff" />
</g>
<rect
   x="519.94"
   y="0"
   width="841.89001"
   height="595.28003"
   id="rect1231" />
<path
   class="st3"
   d="m 1013.03,280.03 c -4.61,-4.66 -11.02,-7.34 -17.58,-7.34 -14.29,0 -25.07,10.47 -25.07,24.34 0,12.76 11.41,23.95 24.43,23.95 6.87,0 13.25,-2.59 17.95,-7.28 4.44,-4.43 7.03,-10.44 7.11,-16.5 0.08,-6.53 -2.35,-12.64 -6.84,-17.17 z m -18.14,31.68 c -7.87,0 -14.52,-6.83 -14.52,-14.92 0,-8.04 6.72,-14.84 14.68,-14.84 8.18,0 14.84,6.62 14.84,14.76 0,8.41 -6.59,15 -15,15 z"
   id="path1233" />
<path
   class="st3"
   d="m 884.11,272.69 c -8.3,0 -12.03,4.66 -12.03,4.66 l -10.19,4.85 v 38.78 h 10.19 v -25.66 c 0,-8.13 4.26,-13.18 11.13,-13.18 7.15,0 10.47,4.21 10.47,13.26 v 25.58 h 10.19 v -28.04 c 0,-12.3 -7.75,-20.25 -19.76,-20.25 z"
   id="path1235" />
<polygon
   class="st3"
   points="1250.57,272.69 1250.57,320.98 1260.87,320.98 1260.87,267.84 "
   id="polygon1237"
   transform="translate(-341.95)" />
<path
   class="st3"
   d="m 945.88,272.61 c -4.99,0 -9.07,1.58 -11.92,4.6 v -11.18 l 0.01,-5.26 -10.3,4.85 -0.01,4.74 v 16.46 34.09 h 10.19 v -25.42 c 0,-8.41 4.16,-13.42 11.13,-13.42 4.5,0 10.47,1.38 10.47,13.34 v 25.5 h 10.19 v -28.12 c 0,-12.27 -7.75,-20.18 -19.76,-20.18 z"
   id="path1239" />
<path
   class="st1"
   d="m 923.66,249.17 c 0,-8.16 -6.62,-14.78 -14.78,-14.78 l 14.78,25.98 z"
   id="path1241" />
<path
   class="st2"
   d="m 935.9,248.13 c -6.76,0 -12.24,5.48 -12.24,12.24 l 26.02,-12.24 z"
   id="path1243" />
<g
   id="g1335"
   transform="translate(-341.95)">
	<g
   id="g1333">
		<path
   class="st3"
   d="m 1214.85,335.29 h 2.36 l 2.32,6.1 2.35,-6.1 h 2.33 v 8.7 h -1.47 v -7.23 h -0.02 l -2.64,7.23 H 1219 l -2.64,-7.23 h -0.02 v 7.23 h -1.47 v -8.7 z"
   id="path1245" />
		<path
   class="st3"
   d="m 1229.62,343.18 h -0.04 c -0.21,0.34 -0.48,0.58 -0.81,0.73 -0.33,0.15 -0.69,0.23 -1.08,0.23 -0.27,0 -0.53,-0.04 -0.79,-0.11 -0.26,-0.07 -0.49,-0.18 -0.69,-0.33 -0.2,-0.15 -0.36,-0.33 -0.49,-0.55 -0.12,-0.22 -0.18,-0.48 -0.18,-0.77 0,-0.32 0.06,-0.59 0.17,-0.82 0.11,-0.23 0.27,-0.41 0.46,-0.57 0.19,-0.15 0.42,-0.27 0.67,-0.36 0.25,-0.09 0.52,-0.16 0.79,-0.2 0.27,-0.04 0.55,-0.07 0.83,-0.09 0.28,-0.01 0.54,-0.02 0.79,-0.02 h 0.37 v -0.16 c 0,-0.37 -0.13,-0.65 -0.38,-0.83 -0.25,-0.18 -0.58,-0.28 -0.97,-0.28 -0.31,0 -0.6,0.06 -0.87,0.17 -0.27,0.11 -0.5,0.26 -0.7,0.45 l -0.77,-0.77 c 0.33,-0.34 0.71,-0.58 1.15,-0.73 0.44,-0.15 0.89,-0.22 1.36,-0.22 0.42,0 0.77,0.05 1.06,0.14 0.29,0.09 0.52,0.21 0.71,0.36 0.19,0.15 0.33,0.32 0.44,0.51 0.1,0.19 0.18,0.39 0.22,0.58 0.04,0.2 0.07,0.39 0.08,0.57 0.01,0.18 0.01,0.35 0.01,0.49 v 3.39 h -1.33 v -0.81 z m -0.09,-1.84 h -0.31 c -0.2,0 -0.43,0.01 -0.69,0.02 -0.25,0.02 -0.49,0.06 -0.72,0.12 -0.23,0.06 -0.42,0.15 -0.57,0.27 -0.16,0.12 -0.23,0.28 -0.23,0.5 0,0.14 0.03,0.26 0.09,0.35 0.06,0.09 0.14,0.17 0.24,0.24 0.1,0.07 0.21,0.11 0.33,0.14 0.12,0.03 0.25,0.04 0.37,0.04 0.51,0 0.88,-0.12 1.12,-0.36 0.24,-0.24 0.36,-0.57 0.36,-0.99 v -0.33 z"
   id="path1247" />
		<path
   class="st3"
   d="m 1232.4,334.7 h 1.47 v 5.84 l 2.27,-2.45 h 1.89 l -2.53,2.68 2.69,3.22 h -1.95 l -2.35,-3.01 h -0.02 v 3.01 h -1.47 z"
   id="path1249" />
		<path
   class="st3"
   d="m 1240.06,341.55 c 0.05,0.44 0.22,0.79 0.52,1.03 0.29,0.25 0.65,0.37 1.07,0.37 0.37,0 0.68,-0.08 0.93,-0.23 0.25,-0.15 0.47,-0.34 0.66,-0.57 l 1.06,0.8 c -0.34,0.43 -0.73,0.73 -1.16,0.91 -0.43,0.18 -0.87,0.27 -1.34,0.27 -0.44,0 -0.86,-0.07 -1.25,-0.22 -0.39,-0.15 -0.73,-0.36 -1.02,-0.63 -0.29,-0.27 -0.51,-0.6 -0.68,-0.98 -0.17,-0.38 -0.25,-0.8 -0.25,-1.27 0,-0.47 0.08,-0.89 0.25,-1.27 0.17,-0.38 0.4,-0.71 0.68,-0.98 0.29,-0.27 0.63,-0.48 1.02,-0.63 0.39,-0.15 0.81,-0.22 1.25,-0.22 0.41,0 0.78,0.07 1.12,0.22 0.34,0.14 0.63,0.35 0.87,0.62 0.24,0.27 0.43,0.6 0.57,1 0.14,0.4 0.2,0.85 0.2,1.37 v 0.41 z m 3.02,-1.1 c -0.01,-0.43 -0.14,-0.78 -0.41,-1.03 -0.26,-0.25 -0.63,-0.37 -1.09,-0.37 -0.44,0 -0.79,0.13 -1.05,0.38 -0.26,0.25 -0.42,0.59 -0.47,1.02 z"
   id="path1251" />
		<path
   class="st3"
   d="m 1249.03,341.04 c 0,-0.47 0.08,-0.89 0.25,-1.27 0.17,-0.38 0.4,-0.71 0.68,-0.98 0.29,-0.27 0.63,-0.48 1.02,-0.63 0.39,-0.15 0.81,-0.22 1.25,-0.22 0.44,0 0.86,0.07 1.25,0.22 0.39,0.15 0.73,0.36 1.02,0.63 0.29,0.27 0.51,0.6 0.68,0.98 0.17,0.38 0.25,0.8 0.25,1.27 0,0.47 -0.08,0.89 -0.25,1.27 -0.17,0.38 -0.4,0.71 -0.68,0.98 -0.29,0.27 -0.63,0.48 -1.02,0.63 -0.39,0.15 -0.81,0.22 -1.25,0.22 -0.44,0 -0.86,-0.07 -1.25,-0.22 -0.39,-0.15 -0.73,-0.36 -1.02,-0.63 -0.29,-0.27 -0.51,-0.6 -0.68,-0.98 -0.17,-0.38 -0.25,-0.81 -0.25,-1.27 z m 1.47,0 c 0,0.23 0.04,0.45 0.12,0.66 0.08,0.21 0.19,0.4 0.34,0.57 0.15,0.16 0.33,0.29 0.55,0.39 0.21,0.1 0.45,0.15 0.72,0.15 0.27,0 0.51,-0.05 0.73,-0.15 0.21,-0.1 0.4,-0.23 0.55,-0.39 0.15,-0.16 0.27,-0.35 0.34,-0.57 0.08,-0.21 0.12,-0.43 0.12,-0.66 0,-0.23 -0.04,-0.45 -0.12,-0.66 -0.08,-0.21 -0.19,-0.4 -0.34,-0.57 -0.15,-0.16 -0.33,-0.29 -0.55,-0.39 -0.21,-0.1 -0.45,-0.15 -0.73,-0.15 -0.27,0 -0.51,0.05 -0.72,0.15 -0.21,0.1 -0.4,0.23 -0.55,0.39 -0.15,0.16 -0.27,0.35 -0.34,0.57 -0.08,0.21 -0.12,0.43 -0.12,0.66 z"
   id="path1253" />
		<path
   class="st3"
   d="m 1256.7,338.09 h 1.4 v 0.95 h 0.02 c 0.14,-0.29 0.35,-0.55 0.64,-0.77 0.29,-0.22 0.68,-0.33 1.17,-0.33 0.39,0 0.73,0.07 1,0.2 0.27,0.13 0.5,0.3 0.67,0.52 0.17,0.21 0.29,0.46 0.37,0.74 0.07,0.28 0.11,0.57 0.11,0.87 v 3.72 h -1.47 V 341 c 0,-0.16 -0.01,-0.35 -0.02,-0.55 -0.02,-0.2 -0.06,-0.39 -0.13,-0.57 -0.07,-0.18 -0.18,-0.32 -0.33,-0.44 -0.15,-0.12 -0.35,-0.18 -0.6,-0.18 -0.25,0 -0.45,0.04 -0.62,0.12 -0.17,0.08 -0.31,0.19 -0.42,0.33 -0.11,0.14 -0.19,0.3 -0.24,0.48 -0.05,0.18 -0.07,0.37 -0.07,0.57 v 3.22 h -1.47 v -5.89 z"
   id="path1255" />
		<path
   class="st3"
   d="m 1264.81,341.55 c 0.05,0.44 0.22,0.79 0.52,1.03 0.29,0.25 0.65,0.37 1.07,0.37 0.37,0 0.68,-0.08 0.93,-0.23 0.25,-0.15 0.47,-0.34 0.66,-0.57 l 1.06,0.8 c -0.34,0.43 -0.73,0.73 -1.16,0.91 -0.43,0.18 -0.87,0.27 -1.34,0.27 -0.44,0 -0.86,-0.07 -1.25,-0.22 -0.39,-0.15 -0.73,-0.36 -1.02,-0.63 -0.29,-0.27 -0.51,-0.6 -0.68,-0.98 -0.17,-0.38 -0.25,-0.8 -0.25,-1.27 0,-0.47 0.08,-0.89 0.25,-1.27 0.17,-0.38 0.4,-0.71 0.68,-0.98 0.29,-0.27 0.63,-0.48 1.02,-0.63 0.39,-0.15 0.81,-0.22 1.25,-0.22 0.41,0 0.78,0.07 1.12,0.22 0.34,0.14 0.63,0.35 0.87,0.62 0.24,0.27 0.43,0.6 0.57,1 0.14,0.4 0.2,0.85 0.2,1.37 v 0.41 z m 3.02,-1.1 c -0.01,-0.43 -0.14,-0.78 -0.41,-1.03 -0.26,-0.25 -0.63,-0.37 -1.09,-0.37 -0.44,0 -0.79,0.13 -1.05,0.38 -0.26,0.25 -0.42,0.59 -0.47,1.02 z"
   id="path1257" />
		<path
   class="st3"
   d="m 1277.22,339.72 c -0.29,-0.4 -0.67,-0.6 -1.16,-0.6 -0.2,0 -0.39,0.05 -0.58,0.15 -0.19,0.1 -0.28,0.26 -0.28,0.48 0,0.18 0.08,0.31 0.23,0.39 0.16,0.08 0.35,0.15 0.59,0.21 0.24,0.06 0.49,0.12 0.77,0.18 0.27,0.06 0.53,0.16 0.77,0.28 0.24,0.13 0.43,0.3 0.59,0.52 0.16,0.22 0.23,0.52 0.23,0.91 0,0.35 -0.08,0.65 -0.23,0.89 -0.15,0.24 -0.35,0.44 -0.59,0.58 -0.24,0.14 -0.51,0.25 -0.82,0.32 -0.31,0.07 -0.61,0.1 -0.91,0.1 -0.46,0 -0.88,-0.07 -1.27,-0.2 -0.39,-0.13 -0.73,-0.37 -1.03,-0.71 l 0.98,-0.92 c 0.19,0.21 0.39,0.39 0.61,0.52 0.22,0.14 0.48,0.2 0.79,0.2 0.11,0 0.22,-0.01 0.33,-0.04 0.11,-0.02 0.22,-0.07 0.32,-0.12 0.1,-0.06 0.18,-0.13 0.24,-0.21 0.06,-0.09 0.09,-0.19 0.09,-0.3 0,-0.2 -0.08,-0.36 -0.23,-0.45 -0.16,-0.1 -0.35,-0.18 -0.59,-0.24 -0.24,-0.06 -0.49,-0.12 -0.77,-0.17 -0.27,-0.05 -0.53,-0.14 -0.77,-0.26 -0.24,-0.12 -0.43,-0.28 -0.59,-0.5 -0.16,-0.21 -0.23,-0.51 -0.23,-0.88 0,-0.33 0.07,-0.61 0.2,-0.85 0.14,-0.24 0.31,-0.44 0.53,-0.6 0.22,-0.16 0.47,-0.27 0.76,-0.34 0.29,-0.07 0.58,-0.11 0.87,-0.11 0.39,0 0.78,0.07 1.17,0.2 0.38,0.14 0.7,0.37 0.93,0.69 z"
   id="path1259" />
		<path
   class="st3"
   d="m 1278.72,339.34 v -1.25 h 1.22 v -1.71 h 1.47 v 1.71 h 1.62 v 1.25 h -1.62 v 2.58 c 0,0.29 0.06,0.53 0.17,0.7 0.11,0.17 0.33,0.26 0.66,0.26 0.13,0 0.27,-0.01 0.43,-0.04 0.16,-0.03 0.28,-0.08 0.37,-0.14 v 1.24 c -0.16,0.07 -0.35,0.12 -0.57,0.15 -0.23,0.03 -0.42,0.04 -0.6,0.04 -0.39,0 -0.71,-0.04 -0.96,-0.13 -0.25,-0.09 -0.45,-0.22 -0.59,-0.39 -0.14,-0.18 -0.24,-0.4 -0.3,-0.66 -0.05,-0.26 -0.08,-0.57 -0.08,-0.91 v -2.7 z"
   id="path1261" />
		<path
   class="st3"
   d="m 1285.24,341.55 c 0.05,0.44 0.22,0.79 0.52,1.03 0.29,0.25 0.65,0.37 1.07,0.37 0.37,0 0.68,-0.08 0.93,-0.23 0.25,-0.15 0.47,-0.34 0.66,-0.57 l 1.06,0.8 c -0.34,0.43 -0.73,0.73 -1.15,0.91 -0.43,0.18 -0.87,0.27 -1.34,0.27 -0.44,0 -0.86,-0.07 -1.25,-0.22 -0.39,-0.15 -0.73,-0.36 -1.02,-0.63 -0.29,-0.27 -0.51,-0.6 -0.68,-0.98 -0.17,-0.38 -0.25,-0.8 -0.25,-1.27 0,-0.47 0.08,-0.89 0.25,-1.27 0.17,-0.38 0.39,-0.71 0.68,-0.98 0.29,-0.27 0.63,-0.48 1.02,-0.63 0.39,-0.15 0.81,-0.22 1.25,-0.22 0.41,0 0.78,0.07 1.12,0.22 0.34,0.14 0.63,0.35 0.87,0.62 0.24,0.27 0.43,0.6 0.57,1 0.14,0.4 0.2,0.85 0.2,1.37 v 0.41 z m 3.03,-1.1 c -0.01,-0.43 -0.14,-0.78 -0.41,-1.03 -0.26,-0.25 -0.63,-0.37 -1.09,-0.37 -0.44,0 -0.79,0.13 -1.05,0.38 -0.26,0.25 -0.42,0.59 -0.47,1.02 z"
   id="path1263" />
		<path
   class="st3"
   d="m 1290.99,338.09 h 1.4 v 0.88 h 0.02 c 0.21,-0.36 0.5,-0.62 0.86,-0.79 0.36,-0.16 0.75,-0.25 1.17,-0.25 0.45,0 0.86,0.08 1.22,0.24 0.36,0.16 0.67,0.38 0.92,0.66 0.25,0.28 0.45,0.61 0.58,0.98 0.13,0.38 0.2,0.78 0.2,1.22 0,0.43 -0.07,0.84 -0.21,1.22 -0.14,0.38 -0.33,0.7 -0.58,0.98 -0.25,0.28 -0.55,0.5 -0.9,0.66 -0.35,0.16 -0.74,0.24 -1.16,0.24 -0.28,0 -0.52,-0.03 -0.74,-0.09 -0.21,-0.06 -0.4,-0.13 -0.57,-0.22 -0.16,-0.09 -0.3,-0.19 -0.42,-0.29 -0.11,-0.1 -0.21,-0.2 -0.28,-0.3 h -0.04 v 3.55 h -1.47 z m 4.89,2.95 c 0,-0.23 -0.04,-0.45 -0.12,-0.66 -0.08,-0.21 -0.19,-0.4 -0.34,-0.57 -0.15,-0.16 -0.33,-0.29 -0.55,-0.39 -0.21,-0.1 -0.45,-0.15 -0.73,-0.15 -0.27,0 -0.51,0.05 -0.73,0.15 -0.22,0.1 -0.4,0.23 -0.55,0.39 -0.15,0.16 -0.27,0.35 -0.34,0.57 -0.08,0.21 -0.12,0.43 -0.12,0.66 0,0.23 0.04,0.45 0.12,0.66 0.08,0.21 0.19,0.4 0.34,0.57 0.15,0.16 0.33,0.29 0.55,0.39 0.22,0.1 0.45,0.15 0.73,0.15 0.27,0 0.51,-0.05 0.73,-0.15 0.21,-0.1 0.39,-0.23 0.55,-0.39 0.15,-0.16 0.27,-0.35 0.34,-0.57 0.09,-0.21 0.12,-0.43 0.12,-0.66 z"
   id="path1265" />
		<path
   class="st3"
   d="m 1301.94,336.09 c 0,-0.24 0.09,-0.44 0.26,-0.62 0.18,-0.18 0.4,-0.26 0.67,-0.26 0.27,0 0.5,0.08 0.68,0.25 0.18,0.17 0.28,0.38 0.28,0.63 0,0.25 -0.09,0.46 -0.28,0.63 -0.18,0.17 -0.41,0.25 -0.68,0.25 -0.27,0 -0.49,-0.09 -0.67,-0.26 -0.17,-0.18 -0.26,-0.39 -0.26,-0.62 z m 0.21,2 h 1.47 v 5.9 h -1.47 z"
   id="path1267" />
		<path
   class="st3"
   d="m 1305.2,338.09 h 1.4 v 0.95 h 0.02 c 0.14,-0.29 0.35,-0.55 0.64,-0.77 0.29,-0.22 0.68,-0.33 1.17,-0.33 0.39,0 0.73,0.07 1,0.2 0.27,0.13 0.5,0.3 0.67,0.52 0.17,0.21 0.29,0.46 0.37,0.74 0.07,0.28 0.11,0.57 0.11,0.87 v 3.72 h -1.47 V 341 c 0,-0.16 -0.01,-0.35 -0.02,-0.55 -0.02,-0.2 -0.06,-0.39 -0.13,-0.57 -0.07,-0.18 -0.18,-0.32 -0.33,-0.44 -0.15,-0.12 -0.35,-0.18 -0.6,-0.18 -0.25,0 -0.45,0.04 -0.62,0.12 -0.17,0.08 -0.31,0.19 -0.42,0.33 -0.11,0.14 -0.19,0.3 -0.24,0.48 -0.05,0.18 -0.07,0.37 -0.07,0.57 v 3.22 h -1.47 v -5.89 z"
   id="path1269" />
		<path
   class="st3"
   d="m 1311.44,339.34 v -1.25 h 1.22 v -1.71 h 1.47 v 1.71 h 1.62 v 1.25 h -1.62 v 2.58 c 0,0.29 0.06,0.53 0.17,0.7 0.11,0.17 0.33,0.26 0.66,0.26 0.13,0 0.27,-0.01 0.43,-0.04 0.16,-0.03 0.28,-0.08 0.37,-0.14 v 1.24 c -0.16,0.07 -0.35,0.12 -0.57,0.15 -0.23,0.03 -0.42,0.04 -0.6,0.04 -0.39,0 -0.71,-0.04 -0.96,-0.13 -0.25,-0.09 -0.45,-0.22 -0.59,-0.39 -0.14,-0.18 -0.24,-0.4 -0.29,-0.66 -0.05,-0.26 -0.08,-0.57 -0.08,-0.91 v -2.7 z"
   id="path1271" />
		<path
   class="st3"
   d="m 1316.49,341.04 c 0,-0.47 0.08,-0.89 0.25,-1.27 0.17,-0.38 0.39,-0.71 0.68,-0.98 0.29,-0.27 0.63,-0.48 1.02,-0.63 0.39,-0.15 0.81,-0.22 1.25,-0.22 0.44,0 0.86,0.07 1.25,0.22 0.39,0.15 0.73,0.36 1.02,0.63 0.29,0.27 0.51,0.6 0.68,0.98 0.17,0.38 0.25,0.8 0.25,1.27 0,0.47 -0.08,0.89 -0.25,1.27 -0.17,0.38 -0.39,0.71 -0.68,0.98 -0.29,0.27 -0.63,0.48 -1.02,0.63 -0.39,0.15 -0.81,0.22 -1.25,0.22 -0.44,0 -0.86,-0.07 -1.25,-0.22 -0.39,-0.15 -0.73,-0.36 -1.02,-0.63 -0.29,-0.27 -0.51,-0.6 -0.68,-0.98 -0.16,-0.38 -0.25,-0.81 -0.25,-1.27 z m 1.48,0 c 0,0.23 0.04,0.45 0.12,0.66 0.08,0.21 0.19,0.4 0.34,0.57 0.15,0.16 0.33,0.29 0.55,0.39 0.22,0.1 0.45,0.15 0.73,0.15 0.28,0 0.51,-0.05 0.72,-0.15 0.21,-0.1 0.4,-0.23 0.55,-0.39 0.15,-0.16 0.27,-0.35 0.34,-0.57 0.08,-0.21 0.12,-0.43 0.12,-0.66 0,-0.23 -0.04,-0.45 -0.12,-0.66 -0.08,-0.21 -0.19,-0.4 -0.34,-0.57 -0.15,-0.16 -0.33,-0.29 -0.55,-0.39 -0.21,-0.1 -0.45,-0.15 -0.72,-0.15 -0.27,0 -0.51,0.05 -0.73,0.15 -0.22,0.1 -0.4,0.23 -0.55,0.39 -0.15,0.16 -0.27,0.35 -0.34,0.57 -0.08,0.21 -0.12,0.43 -0.12,0.66 z"
   id="path1273" />
		<path
   class="st3"
   d="m 1326.99,339.34 v -1.25 h 1.22 v -1.71 h 1.47 v 1.71 h 1.62 v 1.25 h -1.62 v 2.58 c 0,0.29 0.06,0.53 0.17,0.7 0.11,0.17 0.33,0.26 0.66,0.26 0.13,0 0.27,-0.01 0.43,-0.04 0.16,-0.03 0.28,-0.08 0.37,-0.14 v 1.24 c -0.16,0.07 -0.35,0.12 -0.57,0.15 -0.23,0.03 -0.42,0.04 -0.6,0.04 -0.39,0 -0.71,-0.04 -0.96,-0.13 -0.25,-0.09 -0.45,-0.22 -0.59,-0.39 -0.14,-0.18 -0.24,-0.4 -0.29,-0.66 -0.05,-0.26 -0.08,-0.57 -0.08,-0.91 v -2.7 z"
   id="path1275" />
		<path
   class="st3"
   d="m 1331.53,338.09 h 1.6 l 1.28,4.13 h 0.02 l 1.19,-4.13 h 1.6 l 1.28,4.13 h 0.02 l 1.23,-4.13 h 1.49 l -2,5.9 h -1.46 l -1.4,-4.03 h -0.02 l -1.24,4.03 h -1.52 z"
   id="path1277" />
		<path
   class="st3"
   d="m 1341.69,341.04 c 0,-0.47 0.08,-0.89 0.25,-1.27 0.17,-0.38 0.39,-0.71 0.68,-0.98 0.29,-0.27 0.63,-0.48 1.02,-0.63 0.39,-0.15 0.81,-0.22 1.25,-0.22 0.44,0 0.86,0.07 1.25,0.22 0.39,0.15 0.73,0.36 1.02,0.63 0.29,0.27 0.51,0.6 0.68,0.98 0.17,0.38 0.25,0.8 0.25,1.27 0,0.47 -0.08,0.89 -0.25,1.27 -0.17,0.38 -0.39,0.71 -0.68,0.98 -0.29,0.27 -0.63,0.48 -1.02,0.63 -0.39,0.15 -0.81,0.22 -1.25,0.22 -0.44,0 -0.86,-0.07 -1.25,-0.22 -0.39,-0.15 -0.73,-0.36 -1.02,-0.63 -0.29,-0.27 -0.51,-0.6 -0.68,-0.98 -0.16,-0.38 -0.25,-0.81 -0.25,-1.27 z m 1.48,0 c 0,0.23 0.04,0.45 0.12,0.66 0.08,0.21 0.19,0.4 0.34,0.57 0.15,0.16 0.33,0.29 0.55,0.39 0.22,0.1 0.45,0.15 0.73,0.15 0.28,0 0.51,-0.05 0.72,-0.15 0.21,-0.1 0.4,-0.23 0.55,-0.39 0.15,-0.16 0.27,-0.35 0.34,-0.57 0.08,-0.21 0.12,-0.43 0.12,-0.66 0,-0.23 -0.04,-0.45 -0.12,-0.66 -0.08,-0.21 -0.19,-0.4 -0.34,-0.57 -0.15,-0.16 -0.33,-0.29 -0.55,-0.39 -0.22,-0.1 -0.45,-0.15 -0.72,-0.15 -0.27,0 -0.51,0.05 -0.73,0.15 -0.22,0.1 -0.4,0.23 -0.55,0.39 -0.15,0.16 -0.27,0.35 -0.34,0.57 -0.08,0.21 -0.12,0.43 -0.12,0.66 z"
   id="path1279" />
		<path
   class="st3"
   d="m 1349.36,343.13 c 0,-0.26 0.1,-0.49 0.29,-0.68 0.19,-0.19 0.42,-0.28 0.69,-0.28 0.26,0 0.49,0.09 0.69,0.27 0.2,0.18 0.29,0.4 0.29,0.66 0,0.26 -0.1,0.49 -0.29,0.68 -0.19,0.19 -0.42,0.28 -0.69,0.28 -0.13,0 -0.26,-0.02 -0.37,-0.07 -0.12,-0.05 -0.22,-0.11 -0.31,-0.2 -0.09,-0.08 -0.16,-0.18 -0.21,-0.29 -0.06,-0.12 -0.09,-0.24 -0.09,-0.37 z"
   id="path1281" />
		<path
   class="st3"
   d="m 1204.09,353.72 c 0,-0.7 0.11,-1.33 0.34,-1.9 0.23,-0.57 0.55,-1.05 0.95,-1.46 0.41,-0.4 0.89,-0.71 1.45,-0.93 0.56,-0.22 1.18,-0.33 1.85,-0.33 0.68,-0.01 1.3,0.09 1.87,0.3 0.57,0.21 1.05,0.51 1.46,0.92 0.41,0.4 0.73,0.88 0.96,1.45 0.23,0.57 0.34,1.2 0.34,1.89 0,0.68 -0.11,1.3 -0.34,1.86 -0.23,0.56 -0.55,1.04 -0.96,1.44 -0.41,0.4 -0.9,0.71 -1.46,0.94 -0.57,0.23 -1.19,0.34 -1.87,0.35 -0.67,0 -1.29,-0.11 -1.85,-0.33 -0.56,-0.22 -1.04,-0.52 -1.45,-0.92 -0.41,-0.4 -0.72,-0.87 -0.95,-1.43 -0.23,-0.55 -0.34,-1.17 -0.34,-1.85 z m 1.62,-0.1 c 0,0.47 0.07,0.9 0.22,1.29 0.14,0.39 0.35,0.73 0.61,1.02 0.26,0.29 0.58,0.51 0.94,0.68 0.36,0.16 0.77,0.25 1.22,0.25 0.45,0 0.86,-0.08 1.23,-0.25 0.37,-0.16 0.68,-0.39 0.95,-0.68 0.26,-0.29 0.46,-0.63 0.61,-1.02 0.14,-0.39 0.21,-0.82 0.21,-1.29 0,-0.43 -0.07,-0.84 -0.21,-1.22 -0.14,-0.38 -0.35,-0.71 -0.61,-0.99 -0.26,-0.28 -0.58,-0.5 -0.95,-0.66 -0.37,-0.16 -0.78,-0.24 -1.23,-0.24 -0.45,0 -0.86,0.08 -1.22,0.24 -0.36,0.16 -0.68,0.38 -0.94,0.66 -0.26,0.28 -0.47,0.61 -0.61,0.99 -0.15,0.38 -0.22,0.79 -0.22,1.22 z"
   id="path1283" />
		<path
   class="st3"
   d="m 1214.53,352.13 h 1.4 v 0.95 h 0.02 c 0.14,-0.29 0.35,-0.55 0.64,-0.77 0.29,-0.22 0.68,-0.33 1.17,-0.33 0.39,0 0.73,0.07 1,0.2 0.27,0.13 0.5,0.3 0.67,0.52 0.17,0.21 0.29,0.46 0.37,0.74 0.07,0.28 0.11,0.57 0.11,0.87 v 3.72 h -1.47 v -2.99 c 0,-0.16 -0.01,-0.35 -0.02,-0.55 -0.02,-0.2 -0.06,-0.39 -0.13,-0.57 -0.07,-0.18 -0.18,-0.32 -0.33,-0.44 -0.15,-0.12 -0.35,-0.18 -0.6,-0.18 -0.25,0 -0.45,0.04 -0.62,0.12 -0.17,0.08 -0.31,0.19 -0.42,0.33 -0.11,0.14 -0.19,0.3 -0.24,0.48 -0.05,0.18 -0.07,0.37 -0.07,0.57 v 3.22 h -1.47 v -5.89 z"
   id="path1285" />
		<path
   class="st3"
   d="m 1222.64,355.6 c 0.05,0.44 0.22,0.79 0.52,1.03 0.29,0.25 0.65,0.37 1.07,0.37 0.37,0 0.68,-0.08 0.93,-0.23 0.25,-0.15 0.47,-0.34 0.66,-0.57 l 1.06,0.8 c -0.34,0.43 -0.73,0.73 -1.16,0.91 -0.43,0.18 -0.87,0.27 -1.34,0.27 -0.44,0 -0.86,-0.07 -1.25,-0.22 -0.39,-0.15 -0.73,-0.36 -1.02,-0.63 -0.29,-0.27 -0.51,-0.6 -0.68,-0.98 -0.17,-0.38 -0.25,-0.81 -0.25,-1.27 0,-0.47 0.08,-0.89 0.25,-1.27 0.17,-0.38 0.4,-0.71 0.68,-0.98 0.29,-0.27 0.63,-0.48 1.02,-0.63 0.39,-0.15 0.81,-0.22 1.25,-0.22 0.41,0 0.78,0.07 1.12,0.21 0.34,0.14 0.63,0.35 0.87,0.62 0.24,0.27 0.43,0.6 0.57,1 0.14,0.4 0.2,0.85 0.2,1.37 v 0.41 h -4.5 z m 3.02,-1.11 c -0.01,-0.43 -0.14,-0.78 -0.41,-1.03 -0.26,-0.25 -0.63,-0.37 -1.09,-0.37 -0.44,0 -0.79,0.13 -1.05,0.38 -0.26,0.25 -0.42,0.59 -0.47,1.02 z"
   id="path1287" />
		<path
   class="st3"
   d="m 1233.09,355.6 c 0.05,0.44 0.22,0.79 0.52,1.03 0.29,0.25 0.65,0.37 1.07,0.37 0.37,0 0.68,-0.08 0.93,-0.23 0.25,-0.15 0.47,-0.34 0.66,-0.57 l 1.06,0.8 c -0.34,0.43 -0.73,0.73 -1.16,0.91 -0.43,0.18 -0.87,0.27 -1.34,0.27 -0.44,0 -0.86,-0.07 -1.25,-0.22 -0.39,-0.15 -0.73,-0.36 -1.02,-0.63 -0.29,-0.27 -0.51,-0.6 -0.68,-0.98 -0.17,-0.38 -0.25,-0.81 -0.25,-1.27 0,-0.47 0.08,-0.89 0.25,-1.27 0.17,-0.38 0.4,-0.71 0.68,-0.98 0.29,-0.27 0.63,-0.48 1.02,-0.63 0.39,-0.15 0.81,-0.22 1.25,-0.22 0.41,0 0.78,0.07 1.12,0.21 0.34,0.14 0.63,0.35 0.87,0.62 0.24,0.27 0.43,0.6 0.57,1 0.14,0.4 0.2,0.85 0.2,1.37 v 0.41 h -4.5 z m 3.02,-1.11 c -0.01,-0.43 -0.14,-0.78 -0.41,-1.03 -0.26,-0.25 -0.63,-0.37 -1.09,-0.37 -0.44,0 -0.79,0.13 -1.05,0.38 -0.26,0.25 -0.42,0.59 -0.47,1.02 z"
   id="path1289" />
		<path
   class="st3"
   d="m 1239.37,353.39 h -1.22 v -1.25 h 1.22 v -0.84 c 0,-0.41 0.03,-0.78 0.09,-1.11 0.06,-0.33 0.17,-0.62 0.33,-0.85 0.16,-0.24 0.38,-0.42 0.67,-0.55 0.29,-0.13 0.66,-0.19 1.12,-0.19 0.34,0 0.65,0.03 0.93,0.09 l -0.1,1.25 c -0.11,-0.02 -0.21,-0.05 -0.31,-0.06 -0.1,-0.02 -0.2,-0.02 -0.31,-0.02 -0.2,0 -0.37,0.03 -0.49,0.1 -0.12,0.07 -0.22,0.15 -0.29,0.26 -0.07,0.11 -0.11,0.24 -0.14,0.39 -0.02,0.15 -0.03,0.3 -0.03,0.47 v 1.07 h 1.36 v 1.25 h -1.36 v 4.65 h -1.47 z"
   id="path1291" />
		<path
   class="st3"
   d="m 1243.35,353.39 h -1.22 v -1.25 h 1.22 v -0.84 c 0,-0.41 0.03,-0.78 0.09,-1.11 0.06,-0.33 0.17,-0.62 0.33,-0.85 0.16,-0.24 0.38,-0.42 0.67,-0.55 0.29,-0.13 0.66,-0.19 1.12,-0.19 0.34,0 0.65,0.03 0.93,0.09 l -0.1,1.25 c -0.11,-0.02 -0.21,-0.05 -0.31,-0.06 -0.1,-0.02 -0.2,-0.02 -0.31,-0.02 -0.2,0 -0.37,0.03 -0.49,0.1 -0.12,0.07 -0.22,0.15 -0.29,0.26 -0.07,0.11 -0.11,0.24 -0.14,0.39 -0.02,0.15 -0.03,0.3 -0.03,0.47 v 1.07 h 1.36 v 1.25 h -1.36 v 4.65 h -1.47 z"
   id="path1293" />
		<path
   class="st3"
   d="m 1248.2,355.6 c 0.05,0.44 0.22,0.79 0.52,1.03 0.29,0.25 0.65,0.37 1.07,0.37 0.37,0 0.68,-0.08 0.93,-0.23 0.25,-0.15 0.47,-0.34 0.66,-0.57 l 1.06,0.8 c -0.34,0.43 -0.73,0.73 -1.16,0.91 -0.43,0.18 -0.87,0.27 -1.34,0.27 -0.44,0 -0.86,-0.07 -1.25,-0.22 -0.39,-0.15 -0.73,-0.36 -1.02,-0.63 -0.29,-0.27 -0.51,-0.6 -0.68,-0.98 -0.17,-0.38 -0.25,-0.81 -0.25,-1.27 0,-0.47 0.08,-0.89 0.25,-1.27 0.17,-0.38 0.4,-0.71 0.68,-0.98 0.29,-0.27 0.63,-0.48 1.02,-0.63 0.39,-0.15 0.81,-0.22 1.25,-0.22 0.41,0 0.78,0.07 1.12,0.21 0.34,0.14 0.63,0.35 0.87,0.62 0.24,0.27 0.43,0.6 0.57,1 0.14,0.4 0.2,0.85 0.2,1.37 v 0.41 h -4.5 z m 3.02,-1.11 c -0.01,-0.43 -0.14,-0.78 -0.41,-1.03 -0.26,-0.25 -0.63,-0.37 -1.09,-0.37 -0.44,0 -0.79,0.13 -1.05,0.38 -0.26,0.25 -0.42,0.59 -0.47,1.02 z"
   id="path1295" />
		<path
   class="st3"
   d="m 1257.98,353.9 c -0.17,-0.18 -0.35,-0.32 -0.54,-0.43 -0.19,-0.11 -0.38,-0.16 -0.58,-0.16 -0.27,0 -0.51,0.05 -0.72,0.15 -0.21,0.1 -0.4,0.23 -0.55,0.39 -0.15,0.16 -0.27,0.35 -0.34,0.57 -0.08,0.21 -0.12,0.43 -0.12,0.66 0,0.23 0.04,0.45 0.12,0.66 0.08,0.21 0.19,0.4 0.34,0.57 0.15,0.16 0.33,0.3 0.55,0.39 0.21,0.1 0.45,0.15 0.72,0.15 0.23,0 0.44,-0.05 0.64,-0.14 0.2,-0.09 0.36,-0.23 0.5,-0.41 l 0.98,1.06 c -0.15,0.15 -0.32,0.27 -0.51,0.38 -0.19,0.11 -0.39,0.19 -0.58,0.26 -0.2,0.07 -0.39,0.11 -0.57,0.14 -0.18,0.03 -0.34,0.04 -0.47,0.04 -0.44,0 -0.86,-0.07 -1.25,-0.22 -0.39,-0.15 -0.73,-0.36 -1.02,-0.63 -0.29,-0.27 -0.51,-0.6 -0.68,-0.98 -0.17,-0.38 -0.25,-0.81 -0.25,-1.27 0,-0.47 0.08,-0.89 0.25,-1.27 0.17,-0.38 0.4,-0.71 0.68,-0.98 0.29,-0.27 0.63,-0.48 1.02,-0.63 0.39,-0.15 0.81,-0.22 1.25,-0.22 0.38,0 0.76,0.07 1.14,0.21 0.38,0.14 0.71,0.37 1,0.68 z"
   id="path1297" />
		<path
   class="st3"
   d="m 1259.06,353.39 v -1.25 h 1.22 v -1.71 h 1.47 v 1.71 h 1.62 v 1.25 h -1.62 v 2.58 c 0,0.29 0.06,0.53 0.17,0.7 0.11,0.17 0.33,0.26 0.66,0.26 0.13,0 0.27,-0.01 0.43,-0.04 0.16,-0.03 0.28,-0.08 0.37,-0.14 v 1.24 c -0.16,0.07 -0.35,0.12 -0.57,0.15 -0.23,0.03 -0.42,0.04 -0.6,0.04 -0.39,0 -0.71,-0.04 -0.96,-0.13 -0.25,-0.09 -0.45,-0.22 -0.59,-0.39 -0.14,-0.18 -0.24,-0.39 -0.3,-0.66 -0.05,-0.26 -0.08,-0.57 -0.08,-0.91 v -2.7 z"
   id="path1299" />
		<path
   class="st3"
   d="m 1264.9,356.33 h 1.5 l -1.04,3.24 h -1.31 z"
   id="path1301" />
		<path
   class="st3"
   d="m 1270.75,353.39 v -1.25 h 1.22 v -1.71 h 1.47 v 1.71 h 1.62 v 1.25 h -1.62 v 2.58 c 0,0.29 0.06,0.53 0.17,0.7 0.11,0.17 0.33,0.26 0.66,0.26 0.13,0 0.27,-0.01 0.43,-0.04 0.16,-0.03 0.28,-0.08 0.37,-0.14 v 1.24 c -0.16,0.07 -0.35,0.12 -0.57,0.15 -0.23,0.03 -0.42,0.04 -0.6,0.04 -0.39,0 -0.71,-0.04 -0.96,-0.13 -0.25,-0.09 -0.45,-0.22 -0.59,-0.39 -0.14,-0.18 -0.24,-0.39 -0.3,-0.66 -0.05,-0.26 -0.08,-0.57 -0.08,-0.91 v -2.7 z"
   id="path1303" />
		<path
   class="st3"
   d="m 1275.3,352.13 h 1.6 l 1.28,4.13 h 0.02 l 1.19,-4.13 h 1.6 l 1.28,4.13 h 0.02 l 1.23,-4.13 h 1.49 l -2,5.9 h -1.46 l -1.4,-4.03 h -0.02 l -1.24,4.03 h -1.52 z"
   id="path1305" />
		<path
   class="st3"
   d="m 1285.57,350.13 c 0,-0.24 0.09,-0.44 0.26,-0.62 0.17,-0.18 0.4,-0.26 0.67,-0.26 0.27,0 0.5,0.08 0.68,0.25 0.18,0.17 0.28,0.38 0.28,0.63 0,0.25 -0.09,0.47 -0.28,0.63 -0.18,0.17 -0.41,0.25 -0.68,0.25 -0.27,0 -0.49,-0.09 -0.67,-0.26 -0.18,-0.17 -0.26,-0.38 -0.26,-0.62 z m 0.21,2 h 1.47 v 5.9 h -1.47 z"
   id="path1307" />
		<path
   class="st3"
   d="m 1292.86,353.9 c -0.17,-0.18 -0.35,-0.32 -0.54,-0.43 -0.19,-0.11 -0.38,-0.16 -0.58,-0.16 -0.27,0 -0.51,0.05 -0.73,0.15 -0.21,0.1 -0.4,0.23 -0.55,0.39 -0.15,0.16 -0.27,0.35 -0.34,0.57 -0.08,0.21 -0.12,0.43 -0.12,0.66 0,0.23 0.04,0.45 0.12,0.66 0.08,0.21 0.19,0.4 0.34,0.57 0.15,0.16 0.33,0.3 0.55,0.39 0.22,0.09 0.45,0.15 0.73,0.15 0.23,0 0.44,-0.05 0.64,-0.14 0.2,-0.09 0.36,-0.23 0.5,-0.41 l 0.98,1.06 c -0.15,0.15 -0.32,0.27 -0.51,0.38 -0.19,0.11 -0.39,0.19 -0.58,0.26 -0.2,0.07 -0.39,0.11 -0.57,0.14 -0.18,0.03 -0.34,0.04 -0.47,0.04 -0.44,0 -0.86,-0.07 -1.25,-0.22 -0.39,-0.15 -0.73,-0.36 -1.02,-0.63 -0.29,-0.27 -0.51,-0.6 -0.68,-0.98 -0.17,-0.38 -0.25,-0.81 -0.25,-1.27 0,-0.47 0.08,-0.89 0.25,-1.27 0.17,-0.38 0.39,-0.71 0.68,-0.98 0.29,-0.27 0.63,-0.48 1.02,-0.63 0.39,-0.15 0.81,-0.22 1.25,-0.22 0.38,0 0.76,0.07 1.14,0.21 0.38,0.14 0.71,0.37 1,0.68 z"
   id="path1309" />
		<path
   class="st3"
   d="m 1295.81,355.6 c 0.05,0.44 0.22,0.79 0.52,1.03 0.29,0.25 0.65,0.37 1.07,0.37 0.37,0 0.68,-0.08 0.93,-0.23 0.25,-0.15 0.47,-0.34 0.66,-0.57 l 1.06,0.8 c -0.34,0.43 -0.73,0.73 -1.15,0.91 -0.43,0.18 -0.87,0.27 -1.34,0.27 -0.44,0 -0.86,-0.07 -1.25,-0.22 -0.39,-0.15 -0.73,-0.36 -1.02,-0.63 -0.29,-0.27 -0.51,-0.6 -0.68,-0.98 -0.17,-0.38 -0.25,-0.81 -0.25,-1.27 0,-0.47 0.08,-0.89 0.25,-1.27 0.17,-0.38 0.39,-0.71 0.68,-0.98 0.29,-0.27 0.63,-0.48 1.02,-0.63 0.39,-0.15 0.81,-0.22 1.25,-0.22 0.41,0 0.78,0.07 1.12,0.21 0.34,0.14 0.63,0.35 0.87,0.62 0.24,0.27 0.43,0.6 0.57,1 0.14,0.4 0.2,0.85 0.2,1.37 v 0.41 h -4.51 z m 3.02,-1.11 c -0.01,-0.43 -0.14,-0.78 -0.41,-1.03 -0.26,-0.25 -0.63,-0.37 -1.09,-0.37 -0.44,0 -0.79,0.13 -1.05,0.38 -0.26,0.25 -0.42,0.59 -0.47,1.02 z"
   id="path1311" />
		<path
   class="st3"
   d="m 1304.38,353.39 v -1.25 h 1.22 v -1.71 h 1.47 v 1.71 h 1.62 v 1.25 h -1.62 v 2.58 c 0,0.29 0.06,0.53 0.17,0.7 0.11,0.17 0.33,0.26 0.66,0.26 0.13,0 0.27,-0.01 0.43,-0.04 0.16,-0.03 0.28,-0.08 0.37,-0.14 v 1.24 c -0.16,0.07 -0.35,0.12 -0.57,0.15 -0.23,0.03 -0.42,0.04 -0.6,0.04 -0.39,0 -0.71,-0.04 -0.96,-0.13 -0.25,-0.09 -0.45,-0.22 -0.59,-0.39 -0.14,-0.18 -0.24,-0.39 -0.29,-0.66 -0.05,-0.26 -0.08,-0.57 -0.08,-0.91 v -2.7 z"
   id="path1313" />
		<path
   class="st3"
   d="m 1311.21,352.96 h 0.02 c 0.11,-0.25 0.32,-0.47 0.61,-0.67 0.29,-0.2 0.67,-0.3 1.12,-0.3 0.39,0 0.73,0.07 1,0.2 0.27,0.13 0.5,0.3 0.67,0.52 0.17,0.21 0.29,0.46 0.37,0.74 0.07,0.28 0.11,0.57 0.11,0.87 v 3.72 h -1.47 v -2.99 c 0,-0.16 -0.01,-0.35 -0.02,-0.55 -0.02,-0.2 -0.06,-0.39 -0.13,-0.57 -0.07,-0.18 -0.18,-0.32 -0.33,-0.44 -0.15,-0.12 -0.35,-0.18 -0.6,-0.18 -0.25,0 -0.45,0.04 -0.62,0.12 -0.17,0.08 -0.31,0.19 -0.42,0.33 -0.11,0.14 -0.19,0.3 -0.24,0.48 -0.05,0.18 -0.07,0.37 -0.07,0.57 v 3.22 h -1.47 v -9.29 h 1.47 z"
   id="path1315" />
		<path
   class="st3"
   d="m 1317.85,355.6 c 0.05,0.44 0.22,0.79 0.52,1.03 0.29,0.25 0.65,0.37 1.07,0.37 0.37,0 0.68,-0.08 0.93,-0.23 0.25,-0.15 0.47,-0.34 0.66,-0.57 l 1.06,0.8 c -0.34,0.43 -0.73,0.73 -1.15,0.91 -0.43,0.18 -0.87,0.27 -1.34,0.27 -0.44,0 -0.86,-0.07 -1.25,-0.22 -0.39,-0.15 -0.73,-0.36 -1.02,-0.63 -0.29,-0.27 -0.51,-0.6 -0.68,-0.98 -0.17,-0.38 -0.25,-0.81 -0.25,-1.27 0,-0.47 0.08,-0.89 0.25,-1.27 0.17,-0.38 0.39,-0.71 0.68,-0.98 0.29,-0.27 0.63,-0.48 1.02,-0.63 0.39,-0.15 0.81,-0.22 1.25,-0.22 0.41,0 0.78,0.07 1.12,0.21 0.34,0.14 0.63,0.35 0.87,0.62 0.24,0.27 0.43,0.6 0.57,1 0.14,0.4 0.2,0.85 0.2,1.37 v 0.41 h -4.51 z m 3.02,-1.11 c -0.01,-0.43 -0.14,-0.78 -0.41,-1.03 -0.26,-0.25 -0.63,-0.37 -1.09,-0.37 -0.44,0 -0.79,0.13 -1.05,0.38 -0.26,0.25 -0.42,0.59 -0.47,1.02 z"
   id="path1317" />
		<path
   class="st3"
   d="m 1328.29,355.6 c 0.05,0.44 0.22,0.79 0.52,1.03 0.29,0.25 0.65,0.37 1.07,0.37 0.37,0 0.68,-0.08 0.93,-0.23 0.25,-0.15 0.47,-0.34 0.66,-0.57 l 1.06,0.8 c -0.34,0.43 -0.73,0.73 -1.15,0.91 -0.43,0.18 -0.87,0.27 -1.34,0.27 -0.44,0 -0.86,-0.07 -1.25,-0.22 -0.39,-0.15 -0.73,-0.36 -1.02,-0.63 -0.29,-0.27 -0.51,-0.6 -0.68,-0.98 -0.17,-0.38 -0.25,-0.81 -0.25,-1.27 0,-0.47 0.08,-0.89 0.25,-1.27 0.17,-0.38 0.39,-0.71 0.68,-0.98 0.29,-0.27 0.63,-0.48 1.02,-0.63 0.39,-0.15 0.81,-0.22 1.25,-0.22 0.41,0 0.78,0.07 1.12,0.21 0.34,0.14 0.63,0.35 0.87,0.62 0.24,0.27 0.43,0.6 0.57,1 0.14,0.4 0.2,0.85 0.2,1.37 v 0.41 h -4.51 z m 3.03,-1.11 c -0.01,-0.43 -0.14,-0.78 -0.41,-1.03 -0.26,-0.25 -0.63,-0.37 -1.09,-0.37 -0.44,0 -0.79,0.13 -1.05,0.38 -0.26,0.25 -0.42,0.59 -0.47,1.02 z"
   id="path1319" />
		<path
   class="st3"
   d="m 1334.57,353.39 h -1.22 v -1.25 h 1.22 v -0.84 c 0,-0.41 0.03,-0.78 0.09,-1.11 0.06,-0.33 0.17,-0.62 0.33,-0.85 0.16,-0.24 0.38,-0.42 0.67,-0.55 0.29,-0.13 0.66,-0.19 1.12,-0.19 0.34,0 0.65,0.03 0.93,0.09 l -0.1,1.25 c -0.11,-0.02 -0.21,-0.05 -0.31,-0.06 -0.1,-0.02 -0.2,-0.02 -0.31,-0.02 -0.2,0 -0.37,0.03 -0.49,0.1 -0.12,0.07 -0.22,0.15 -0.29,0.26 -0.07,0.11 -0.11,0.24 -0.14,0.39 -0.02,0.15 -0.03,0.3 -0.03,0.47 v 1.07 h 1.36 v 1.25 h -1.36 v 4.65 h -1.47 z"
   id="path1321" />
		<path
   class="st3"
   d="m 1338.55,353.39 h -1.22 v -1.25 h 1.22 v -0.84 c 0,-0.41 0.03,-0.78 0.09,-1.11 0.06,-0.33 0.17,-0.62 0.33,-0.85 0.16,-0.24 0.38,-0.42 0.67,-0.55 0.29,-0.13 0.66,-0.19 1.12,-0.19 0.34,0 0.65,0.03 0.93,0.09 l -0.1,1.25 c -0.11,-0.02 -0.21,-0.05 -0.31,-0.06 -0.1,-0.02 -0.2,-0.02 -0.31,-0.02 -0.2,0 -0.37,0.03 -0.49,0.1 -0.12,0.07 -0.22,0.15 -0.29,0.26 -0.07,0.11 -0.11,0.24 -0.14,0.39 -0.02,0.15 -0.03,0.3 -0.03,0.47 v 1.07 h 1.36 v 1.25 h -1.36 v 4.65 h -1.47 z"
   id="path1323" />
		<path
   class="st3"
   d="m 1343.41,355.6 c 0.05,0.44 0.22,0.79 0.52,1.03 0.29,0.25 0.65,0.37 1.07,0.37 0.37,0 0.68,-0.08 0.93,-0.23 0.25,-0.15 0.47,-0.34 0.66,-0.57 l 1.06,0.8 c -0.34,0.43 -0.73,0.73 -1.15,0.91 -0.43,0.18 -0.87,0.27 -1.34,0.27 -0.44,0 -0.86,-0.07 -1.25,-0.22 -0.39,-0.15 -0.73,-0.36 -1.02,-0.63 -0.29,-0.27 -0.51,-0.6 -0.68,-0.98 -0.17,-0.38 -0.25,-0.81 -0.25,-1.27 0,-0.47 0.08,-0.89 0.25,-1.27 0.17,-0.38 0.39,-0.71 0.68,-0.98 0.29,-0.27 0.63,-0.48 1.02,-0.63 0.39,-0.15 0.81,-0.22 1.25,-0.22 0.41,0 0.78,0.07 1.12,0.21 0.34,0.14 0.63,0.35 0.87,0.62 0.24,0.27 0.43,0.6 0.57,1 0.14,0.4 0.2,0.85 0.2,1.37 v 0.41 h -4.51 z m 3.02,-1.11 c -0.01,-0.43 -0.14,-0.78 -0.41,-1.03 -0.26,-0.25 -0.63,-0.37 -1.09,-0.37 -0.44,0 -0.79,0.13 -1.05,0.38 -0.26,0.25 -0.42,0.59 -0.47,1.02 z"
   id="path1325" />
		<path
   class="st3"
   d="m 1353.19,353.9 c -0.17,-0.18 -0.35,-0.32 -0.54,-0.43 -0.19,-0.11 -0.38,-0.16 -0.58,-0.16 -0.27,0 -0.51,0.05 -0.73,0.15 -0.21,0.1 -0.4,0.23 -0.55,0.39 -0.15,0.16 -0.27,0.35 -0.34,0.57 -0.08,0.21 -0.12,0.43 -0.12,0.66 0,0.23 0.04,0.45 0.12,0.66 0.08,0.21 0.19,0.4 0.34,0.57 0.15,0.16 0.33,0.3 0.55,0.39 0.22,0.09 0.45,0.15 0.73,0.15 0.23,0 0.44,-0.05 0.64,-0.14 0.2,-0.09 0.36,-0.23 0.5,-0.41 l 0.98,1.06 c -0.15,0.15 -0.32,0.27 -0.51,0.38 -0.19,0.11 -0.39,0.19 -0.58,0.26 -0.2,0.07 -0.39,0.11 -0.57,0.14 -0.18,0.03 -0.34,0.04 -0.47,0.04 -0.44,0 -0.86,-0.07 -1.25,-0.22 -0.39,-0.15 -0.73,-0.36 -1.02,-0.63 -0.29,-0.27 -0.51,-0.6 -0.68,-0.98 -0.17,-0.38 -0.25,-0.81 -0.25,-1.27 0,-0.47 0.08,-0.89 0.25,-1.27 0.17,-0.38 0.39,-0.71 0.68,-0.98 0.29,-0.27 0.63,-0.48 1.02,-0.63 0.39,-0.15 0.81,-0.22 1.25,-0.22 0.38,0 0.76,0.07 1.14,0.21 0.38,0.14 0.71,0.37 1,0.68 z"
   id="path1327" />
		<path
   class="st3"
   d="m 1354.27,353.39 v -1.25 h 1.22 v -1.71 h 1.47 v 1.71 h 1.62 v 1.25 h -1.62 v 2.58 c 0,0.29 0.06,0.53 0.17,0.7 0.11,0.17 0.33,0.26 0.66,0.26 0.13,0 0.27,-0.01 0.43,-0.04 0.16,-0.03 0.28,-0.08 0.37,-0.14 v 1.24 c -0.16,0.07 -0.35,0.12 -0.57,0.15 -0.23,0.03 -0.42,0.04 -0.6,0.04 -0.39,0 -0.71,-0.04 -0.96,-0.13 -0.25,-0.09 -0.45,-0.22 -0.59,-0.39 -0.14,-0.18 -0.24,-0.39 -0.29,-0.66 -0.05,-0.26 -0.08,-0.57 -0.08,-0.91 v -2.7 z"
   id="path1329" />
		<path
   class="st3"
   d="m 1359.62,357.17 c 0,-0.26 0.1,-0.49 0.29,-0.68 0.19,-0.19 0.42,-0.28 0.69,-0.28 0.26,0 0.49,0.09 0.69,0.27 0.2,0.18 0.29,0.4 0.29,0.66 0,0.26 -0.1,0.49 -0.29,0.68 -0.19,0.19 -0.42,0.28 -0.69,0.28 -0.13,0 -0.26,-0.02 -0.37,-0.07 -0.12,-0.05 -0.22,-0.11 -0.31,-0.2 -0.09,-0.08 -0.16,-0.18 -0.21,-0.29 -0.07,-0.12 -0.09,-0.24 -0.09,-0.37 z"
   id="path1331" />
	</g>
</g>
</svg>
